<svg version="1.1" id="Layer_1" xmlns="http://www.w3.org/2000/svg" xmlns:xlink="http://www.w3.org/1999/xlink" 
	width="100px" height="100px" viewBox="0 0 1024 912" enable-background="new 0 0 1024 912" xml:space="preserve">
<path fill="#fff" opacity="1.000000" stroke="#fff" 
	d="
M214.944412,398.901703 
	C216.697861,398.881927 218.026535,398.775940 219.161819,397.941772 
	C225.800308,393.064148 232.459396,392.807281 239.157532,397.825012 
	C240.445572,398.789886 242.002914,398.628754 243.481323,398.788757 
	C245.213409,398.976196 246.349533,399.857666 247.574936,401.203186 
	C250.710815,404.646515 252.545181,409.318909 257.100403,411.453339 
	C258.403290,412.063843 258.081757,413.388245 258.197510,414.534058 
	C258.478882,417.319427 258.863037,420.094391 259.359192,424.117310 
	C264.398499,418.444336 271.888062,420.874908 276.556366,415.900330 
	C277.933563,414.432800 280.627869,414.697510 282.813873,414.710205 
	C288.978210,414.745972 295.142609,414.770905 301.306915,414.809387 
	C303.973785,414.826050 306.692993,414.513519 307.510590,418.219849 
	C307.911438,420.036987 309.933594,419.977875 311.329803,419.790680 
	C317.948395,418.903229 322.263611,423.950317 327.239014,426.538727 
	C334.952698,430.551849 339.898224,438.104187 345.203247,445.046814 
	C353.459686,455.851990 358.028473,470.419891 354.168213,483.753510 
	C352.571960,489.267059 351.375580,496.180817 345.358551,499.816742 
	C344.856110,500.120300 344.384369,500.852325 344.313446,501.435760 
	C343.165619,510.878326 335.168152,513.825317 328.577240,518.096497 
	C328.028503,518.452148 327.049713,518.431335 326.780273,518.886841 
	C323.583649,524.291504 317.126282,523.919556 312.618958,526.974731 
	C310.005890,528.745911 306.892517,528.857361 303.944305,528.874390 
	C291.629852,528.945435 279.313873,529.763306 266.995392,528.641541 
	C262.020630,528.188477 261.455139,533.539978 258.662323,535.973938 
	C254.601013,539.513367 251.246689,543.818237 245.403351,544.474487 
	C245.074585,544.511353 244.598053,544.496826 244.450531,544.697510 
	C241.062271,549.307861 234.431076,548.564270 230.915421,552.897339 
	C229.517807,554.619873 227.825775,555.095459 225.659653,555.088013 
	C215.505371,555.052979 205.273010,555.818054 195.239685,554.308838 
	C190.198059,553.550354 186.646317,547.769165 180.659729,548.558350 
	C178.706039,543.413208 172.933029,544.008728 169.286469,541.216125 
	C165.743454,538.502747 162.757645,535.419373 160.510483,531.929565 
	C157.963760,527.974670 154.095718,524.639832 153.478500,519.513550 
	C153.321075,518.206116 152.510483,516.951660 151.142883,516.458801 
	C148.883591,515.644531 148.831421,513.869263 149.011154,511.969025 
	C149.216553,509.797363 150.834549,508.857849 152.607681,508.273499 
	C153.853348,507.862946 155.266205,507.971954 156.526337,507.590851 
	C161.909088,505.962952 168.610168,508.945923 172.786392,502.903015 
	C173.228027,502.263916 174.648254,502.005859 175.590378,502.052979 
	C186.813843,502.614471 196.811081,497.009735 207.733826,495.712830 
	C214.194046,494.945770 220.481903,492.313019 227.129120,491.620544 
	C230.182770,491.302399 230.565735,488.734161 228.869644,486.844788 
	C226.841736,484.585846 224.445221,482.159271 220.810165,482.799744 
	C212.682526,484.231842 207.473450,479.699707 202.258575,473.918121 
	C196.977341,473.151001 194.714630,478.875610 190.356720,480.844818 
	C185.717438,482.941162 179.778748,483.826538 175.322342,481.033752 
	C174.201920,480.331573 173.003540,479.185150 171.850616,479.196777 
	C164.904572,479.266785 161.853836,473.484253 157.347900,469.898376 
	C156.439072,469.175140 155.602203,468.001709 154.592972,467.823303 
	C148.559769,466.757050 147.548187,460.709015 144.175461,457.112030 
	C142.561188,455.390411 142.103638,452.432404 139.338028,451.351807 
	C138.798447,451.140961 138.166519,450.467865 138.071289,449.921783 
	C136.275879,439.626129 130.579819,430.212616 135.730087,418.564270 
	C138.288574,412.777771 141.890869,409.071533 145.853638,405.209961 
	C148.320358,402.806213 149.096848,400.288635 146.956619,398.431000 
	C143.154541,395.131073 143.571716,391.132233 143.553452,387.021637 
	C143.541611,384.356049 143.562683,381.688812 143.647308,379.024811 
	C143.699341,377.386688 143.515884,375.430450 145.647232,374.944000 
	C147.432617,374.536499 149.229416,374.631439 150.797302,376.017853 
	C155.574219,380.241638 158.939056,379.725311 164.386124,375.904327 
	C172.178223,370.438263 180.770065,366.887146 190.694595,368.987061 
	C192.000565,369.263428 193.657562,369.374786 193.953568,370.852448 
	C194.472748,373.444305 196.122757,373.867432 198.305191,373.886078 
	C199.536560,373.896576 200.787674,374.430145 201.042023,375.677551 
	C201.790710,379.349426 205.153976,380.191315 207.757919,382.373932 
	C210.364838,378.639404 214.705246,378.863159 218.354263,377.472015 
	C221.080124,376.432831 222.372314,378.055908 223.271317,380.275635 
	C224.296143,382.806000 222.656677,383.987335 220.776840,384.915253 
	C220.059204,385.269440 219.166016,385.357727 218.344574,385.397766 
	C211.581375,385.727203 208.669891,390.812042 205.011688,395.448364 
	C201.877838,399.420105 200.827515,403.153137 202.484146,408.491760 
	C205.286713,405.818176 208.675446,404.781372 209.885788,401.102020 
	C210.546799,399.092590 212.660599,398.970398 214.944412,398.901703 
M301.095062,436.902954 
	C297.851501,437.289337 295.542725,436.401062 293.590851,433.356689 
	C291.345398,429.854370 287.875916,430.844788 283.738037,432.241760 
	C289.323181,438.279053 296.601288,443.149963 291.224670,452.216919 
	C289.232208,452.085571 287.904541,450.619110 288.134338,449.360138 
	C289.131653,443.895691 284.937134,442.327789 281.851990,439.499298 
	C278.675415,436.586914 276.876251,437.742676 275.054871,440.419373 
	C273.619659,442.528564 273.322113,445.054352 273.245605,447.585785 
	C273.156525,450.534943 272.976562,453.474976 271.292328,456.179626 
	C267.007507,454.590576 266.086151,451.468201 266.554688,447.715088 
	C266.862976,445.245880 267.535980,442.823700 267.888519,440.358002 
	C268.106659,438.832367 267.954193,437.251343 266.101685,436.710999 
	C264.545441,436.257050 263.483276,437.181244 262.851044,438.418213 
	C261.253387,441.544067 257.721344,442.580170 255.678299,445.247284 
	C254.828690,446.356415 253.320496,446.666351 252.159836,445.480499 
	C251.148895,444.447601 251.690201,443.282532 252.427689,442.322113 
	C253.032104,441.535034 253.819077,440.890991 254.469360,440.135559 
	C255.403564,439.050262 257.020111,438.031891 255.630997,436.358948 
	C254.249161,434.694794 252.965973,436.190796 251.662521,436.757233 
	C244.221970,439.990540 240.529282,447.077911 237.787521,453.523743 
	C234.367447,461.564331 231.709061,470.461365 233.089615,479.695557 
	C233.839737,484.712830 237.185181,487.311829 242.144775,486.568604 
	C247.729904,485.731689 253.414047,485.362701 258.778564,483.363708 
	C261.781921,482.244537 264.906464,481.976776 268.087708,481.787079 
	C271.918121,481.558655 273.472534,482.955658 273.386963,486.929535 
	C273.168304,497.086304 273.306122,507.250275 273.193115,517.410095 
	C273.159943,520.389954 273.423248,522.730652 277.285919,522.706970 
	C286.613495,522.649841 295.941895,522.733643 305.269958,522.732178 
	C306.803436,522.731995 308.445251,522.609314 308.693115,520.627380 
	C308.990967,518.245850 310.670013,517.747131 312.571411,517.525330 
	C319.225861,516.749329 323.815277,512.585022 328.902039,508.711639 
	C331.411102,506.801056 332.126770,504.047760 334.327942,502.425171 
	C339.595673,498.542114 343.371246,494.028839 342.784180,486.946045 
	C342.641296,485.222076 342.549805,483.340912 344.493225,482.066376 
	C348.095245,479.703949 349.792206,468.529907 346.470795,465.939056 
	C343.318878,463.480347 343.664551,460.286682 342.623993,457.276215 
	C339.689850,448.787231 336.990814,439.979279 326.985565,436.848755 
	C325.919678,436.515259 324.583313,436.542145 324.568665,434.870850 
	C324.545441,432.221527 322.458527,431.782562 320.532776,431.221741 
	C318.939056,430.757660 317.306854,430.499146 316.729553,428.493317 
	C316.283142,426.942230 314.864471,426.763550 313.465546,426.822723 
	C307.534729,427.073517 302.052216,425.241302 296.553925,423.342529 
	C294.824524,422.745270 292.937012,421.458282 291.061310,422.982971 
	C294.079651,429.666199 302.201050,429.029510 306.714355,433.494659 
	C305.366547,435.733612 303.658539,436.330170 301.095062,436.902954 
M207.833801,412.383942 
	C205.731262,415.426361 203.111969,416.824554 199.344589,415.413208 
	C198.324249,415.030975 196.922012,414.982239 195.919937,415.366608 
	C192.995483,416.488464 191.026688,415.241211 188.685593,413.606049 
	C183.688278,410.115479 178.913132,405.884857 172.360062,405.595337 
	C168.976974,405.445862 171.494385,402.838135 170.529404,401.452484 
	C167.648453,402.949005 163.959091,399.616608 161.641159,403.021942 
	C159.716721,405.849213 157.047104,406.656799 154.023071,407.079163 
	C152.677917,407.266998 151.270187,407.445862 150.585739,408.769531 
	C147.988098,413.793152 144.059769,418.175720 144.967545,424.674438 
	C145.651627,429.571594 145.074646,434.639191 145.148315,439.629578 
	C145.190231,442.467743 146.398315,444.520416 148.183884,446.980255 
	C150.751999,450.518188 151.073746,455.549072 155.827576,457.909821 
	C156.625473,458.306030 156.796890,460.712219 158.146683,461.950684 
	C163.136215,466.528442 167.894135,471.382385 175.334122,471.525818 
	C176.611649,471.550415 177.532196,472.248383 178.145477,473.323181 
	C180.384476,477.247192 183.734924,477.499969 187.928940,476.194580 
	C186.885834,472.875641 188.603073,471.704834 191.642197,471.582367 
	C192.889160,471.532135 193.740936,470.697815 194.363113,469.631317 
	C197.626114,464.038391 201.934402,463.797089 206.119415,469.057373 
	C207.085892,470.272125 207.988388,471.503967 209.614105,471.594849 
	C212.158844,471.737213 213.888412,472.782623 215.210861,475.062103 
	C216.631866,477.511414 219.315598,476.830688 221.571762,476.730103 
	C223.740829,476.633453 224.340210,474.580017 224.311203,473.098389 
	C224.158249,465.284851 227.640625,458.522552 230.342270,451.576721 
	C232.983322,444.786530 236.935410,438.712616 243.136978,434.610809 
	C250.276306,429.888763 252.280655,426.432617 249.926407,418.747803 
	C248.194717,413.095154 245.433792,407.722046 238.403625,406.703522 
	C236.981857,406.497528 235.411560,405.891449 234.335205,404.971863 
	C229.541260,400.875977 227.880112,400.831573 222.820892,404.980682 
	C221.946609,405.697784 220.844223,406.562256 219.820358,406.598358 
	C215.203552,406.761169 211.827713,409.325470 207.833801,412.383942 
M246.615570,494.083862 
	C236.288452,495.160095 223.422974,501.996704 222.194885,507.305298 
	C225.374557,507.506714 228.921600,509.311249 230.634354,504.857971 
	C231.225708,503.320374 231.511475,501.888550 233.568024,502.490509 
	C235.443497,503.039459 236.707062,503.917023 236.600677,506.336548 
	C236.357712,511.862335 234.856415,513.874573 228.770050,513.011169 
	C223.305435,512.236023 219.779129,513.077393 219.050903,518.078003 
	C213.469543,519.820801 210.715027,516.254822 207.189301,513.301575 
	C205.124680,517.825073 201.491272,519.195435 197.115494,519.369385 
	C195.236008,517.732605 194.384064,515.643982 194.753555,512.870117 
	C195.170837,509.737488 193.518372,508.374725 190.340424,508.363312 
	C181.679138,508.332275 174.089554,512.572815 165.887955,514.354370 
	C165.175995,514.509033 164.406677,515.150024 164.460312,516.171448 
	C171.809311,519.558472 172.598618,520.963684 169.879013,525.727661 
	C171.234283,526.319702 173.068192,526.542175 173.875046,527.570496 
	C178.023361,532.857605 182.361938,532.488831 187.148972,528.612305 
	C188.157227,527.795776 189.428070,527.843628 190.220871,529.014465 
	C191.036240,530.218689 190.355774,531.239319 189.412689,532.055359 
	C187.780197,533.468079 185.654785,534.731079 187.242355,537.361389 
	C188.756104,539.869446 191.319901,540.052917 193.872406,539.812805 
	C196.010330,539.611633 198.062134,538.991943 200.197281,540.115967 
	C206.385117,543.373596 214.332718,542.278015 219.242142,537.606140 
	C221.033966,535.901001 221.567490,534.313660 218.775803,533.027710 
	C217.315399,532.354980 215.123703,531.763611 216.810852,529.572632 
	C218.147598,527.836731 220.194031,528.140869 221.702057,529.482483 
	C223.301376,530.905273 224.544052,532.720154 226.047318,534.261536 
	C229.597794,537.901794 233.124146,537.760132 236.298065,533.798035 
	C237.204773,532.666077 238.224915,532.153442 239.611984,531.880432 
	C246.980148,530.430054 250.647018,524.438904 255.368927,519.790100 
	C253.760849,517.442383 250.258759,518.635620 250.162628,515.640991 
	C250.114136,514.130310 251.496536,513.207642 252.772934,512.971558 
	C256.121704,512.352295 258.639618,510.548096 260.387970,507.944580 
	C262.312225,508.587708 261.803894,511.029205 263.810272,511.143219 
	C265.637421,510.024750 265.430084,507.662781 264.707153,506.776123 
	C260.871094,502.071411 262.890991,497.272522 263.869019,492.431213 
	C263.905518,492.250610 263.520660,491.984863 263.540741,492.008911 
	C258.344269,494.669830 252.658524,492.527466 246.615570,494.083862 
M159.035233,385.729095 
	C157.379745,385.612183 155.724640,385.489502 154.068665,385.380066 
	C152.449738,385.273071 150.927032,385.611603 150.494263,387.363770 
	C150.019028,389.287872 149.401062,391.985474 151.182220,392.930206 
	C153.528259,394.174591 156.119202,396.569183 158.999664,395.342438 
	C168.653122,391.231354 176.059921,399.582672 184.904266,399.742371 
	C185.343292,399.750305 185.979645,400.569977 186.162094,401.129700 
	C187.299866,404.620300 191.036652,405.828674 192.749115,409.758667 
	C194.490341,406.020569 195.035629,403.009338 194.271774,399.881317 
	C193.659775,397.375061 194.624939,395.820160 196.543304,394.360840 
	C201.360825,390.696014 201.046722,385.421661 195.915100,382.551270 
	C194.160446,381.569824 192.414169,380.578979 191.201691,378.933441 
	C189.558945,376.703857 187.410004,376.060333 184.684586,376.108612 
	C180.406097,376.184387 176.012878,375.263733 173.281036,380.060486 
	C172.566483,381.315155 170.567703,381.072876 169.071838,381.171722 
	C167.909119,381.248535 166.224625,381.169861 166.003922,382.338776 
	C165.266647,386.243591 162.270309,385.335205 159.035233,385.729095 
M216.314865,509.271027 
	C215.483124,508.094940 215.124878,506.485077 213.177109,506.015900 
	C211.641724,507.587067 210.120712,509.449432 212.346832,511.342133 
	C213.618576,512.423401 215.900284,512.676636 216.314865,509.271027 
z"/>
<path fill="#fff" opacity="1.000000" stroke="#fff" 
	d="
M641.054688,410.875000 
	C640.539429,412.212067 641.193909,413.637726 639.827271,414.300964 
	C636.165405,416.077820 634.969604,419.008789 636.237305,423.481720 
	C631.894897,421.805145 632.270203,424.630493 631.041138,427.090759 
	C628.460693,432.255859 628.592102,439.190948 622.133850,442.135406 
	C620.785828,442.750000 620.835815,444.289551 621.027771,445.693573 
	C621.444519,448.741364 621.718384,451.756958 617.835999,452.972931 
	C617.428894,453.100403 616.890625,453.665710 616.872559,454.049500 
	C616.609070,459.648651 611.138977,463.247040 611.184875,468.963928 
	C611.195679,470.303894 610.966858,472.020264 609.565918,472.352539 
	C606.062866,473.183289 605.215637,476.074951 604.144104,478.881378 
	C599.308594,478.984558 594.788269,478.709351 590.440857,475.031464 
	C596.138184,474.573883 593.625549,470.621368 594.011047,467.443420 
	C597.458496,466.384369 599.839661,464.397614 599.133728,460.074799 
	C598.961731,459.021301 599.951599,457.535187 600.796326,456.599182 
	C605.135315,451.791870 604.835205,448.773285 600.149780,444.196869 
	C598.992249,443.066193 599.175232,440.537689 598.797424,438.640747 
	C598.342773,436.357483 597.672302,434.414581 594.458374,435.978088 
	C594.688660,431.233154 595.898438,426.522217 589.765320,425.182831 
	C588.782532,424.968262 588.759583,423.533661 588.730774,422.544067 
	C588.600464,418.070312 585.828552,414.943176 582.821472,410.617157 
	C580.849548,415.902191 576.925659,416.435272 572.505066,416.683838 
	C570.102478,416.818909 570.343506,419.679901 570.335022,421.646912 
	C570.293579,431.304291 570.111328,440.967224 570.379150,450.617126 
	C570.509155,455.302185 569.581970,457.783905 564.143677,457.428711 
	C557.969604,457.025513 557.778137,457.226440 557.769470,450.873749 
	C557.756531,441.382843 557.673523,431.889252 557.873596,422.402161 
	C557.954407,418.570679 556.878601,416.252930 552.723572,416.218719 
	C548.996765,416.188019 547.523499,414.481201 547.581360,410.611969 
	C547.643494,406.462036 549.659790,405.470520 553.222961,405.660706 
	C556.995483,405.862091 557.928833,403.662506 557.973328,400.271149 
	C558.103638,390.338562 567.145508,382.969788 577.238159,384.078369 
	C581.772522,384.576447 581.184387,387.689789 581.291382,390.646667 
	C581.400085,393.652283 581.409546,396.401093 577.115601,396.352783 
	C573.317993,396.310028 569.982971,397.202393 570.398682,402.193390 
	C570.500610,403.416626 570.939148,404.983856 572.041260,405.022095 
	C576.149353,405.164673 580.043640,407.764221 584.247192,406.239349 
	C592.532104,403.233978 598.692627,406.656097 600.617554,415.435699 
	C601.057129,417.440643 606.919250,427.073120 608.751282,427.885071 
	C610.883789,428.830139 610.185669,431.654449 613.133362,432.759552 
	C614.239258,427.861023 618.851746,424.794403 619.305420,419.444855 
	C619.497620,417.178986 619.332397,414.648529 622.736755,414.441620 
	C623.795532,414.377289 624.152649,413.188904 624.632080,412.301880 
	C628.358215,405.407837 630.978149,404.250427 638.649902,405.598022 
	C641.978027,406.182617 641.213318,408.445038 641.054688,410.875000 
z"/>
<path fill="#fff" opacity="1.000000" stroke="#fff" 
	d="
M862.929382,457.374176 
	C856.948975,457.379791 851.456421,457.379791 845.615662,457.379791 
	C844.943115,455.326233 844.500549,452.750549 841.606934,452.876770 
	C836.896790,453.082153 836.142761,449.747253 834.414551,446.317444 
	C831.225281,439.987701 829.806030,433.699738 829.419495,426.589172 
	C829.109863,420.892761 832.454956,416.916534 835.060059,414.240265 
	C840.701843,408.444214 847.942383,403.796326 857.144287,405.371429 
	C858.729919,405.642883 860.467529,405.266235 862.099976,404.985474 
	C872.944519,403.120148 879.715149,410.214935 886.771118,416.405975 
	C887.879944,417.378784 887.983459,419.823944 888.044128,421.605621 
	C888.259338,427.925049 888.367554,434.254181 887.662415,440.560760 
	C887.360718,443.258759 886.839111,444.940857 883.954224,446.980072 
	C880.977051,449.084534 878.599915,452.476807 874.840576,454.052887 
	C873.344177,454.680206 875.041382,456.169678 874.324829,457.368561 
	C870.673706,457.368561 867.045471,457.368561 862.929382,457.374176 
M872.374817,437.372803 
	C865.087280,437.328857 857.799622,437.250916 850.512207,437.268311 
	C848.970581,437.272003 846.757507,436.727814 846.549866,439.094177 
	C846.361328,441.243286 846.910583,443.912537 849.306396,444.356903 
	C855.351990,445.478333 861.519958,445.195923 867.627625,444.671783 
	C871.479858,444.341125 872.460510,440.133209 876.209717,438.519287 
	C874.630371,437.985016 873.859741,437.724274 872.374817,437.372803 
M869.448425,425.368042 
	C872.054138,424.523010 871.948853,422.982208 870.317627,421.332336 
	C869.410156,420.414490 868.100159,419.907562 867.121338,419.045380 
	C860.242676,412.986328 850.237671,415.529266 846.614014,425.510193 
	C854.274292,425.510193 861.481628,425.510193 869.448425,425.368042 
z"/>
<path fill="#fff" opacity="1.000000" stroke="#fff" 
	d="
M477.182373,435.681213 
	C476.014648,440.479797 473.909363,444.368286 471.968719,448.303711 
	C469.843689,452.612976 467.209045,451.592651 464.745270,452.763916 
	C462.870514,453.655121 461.971130,455.034424 462.277435,457.300354 
	C453.729187,457.300354 445.463989,458.204437 437.528809,456.976196 
	C432.407288,456.183502 428.112701,452.496643 424.256348,447.813843 
	C418.018372,440.238983 419.862946,432.296021 419.700745,424.134277 
	C419.556396,416.870544 424.041748,412.944641 429.338837,409.642639 
	C436.065887,405.449158 443.628815,404.928802 451.409210,405.006165 
	C462.572754,405.117157 470.168427,411.006897 475.973419,419.601807 
	C479.154724,424.312073 476.896118,429.995575 477.182373,435.681213 
M459.151367,425.296570 
	C460.195160,424.920319 461.518341,424.973816 462.045746,422.864990 
	C457.788452,421.184692 455.554443,416.524628 449.766022,416.070160 
	C442.261902,415.480957 437.317535,418.353821 433.183716,424.589447 
	C441.625732,426.524933 450.040344,425.367981 459.151367,425.296570 
M457.017883,443.721802 
	C459.218689,442.639008 461.128540,441.221710 462.626495,439.226990 
	C458.847015,436.507660 435.645935,436.414246 432.261902,438.914001 
	C439.072083,446.255249 447.436768,446.349915 457.017883,443.721802 
z"/>
<path fill="#fff" opacity="1.000000" stroke="#fff" 
	d="
M493.444672,452.415070 
	C489.135864,452.336853 486.148773,451.533264 486.500671,446.476837 
	C486.618164,444.788818 485.708923,442.907013 484.902557,441.297302 
	C480.478363,432.465485 482.458435,423.111084 486.756653,415.955872 
	C489.638397,411.158630 495.932281,406.113434 503.297333,405.740143 
	C508.602356,405.471313 514.744324,403.535156 519.029175,405.529999 
	C525.646118,408.610535 531.287903,405.228546 537.319641,405.645203 
	C540.566162,405.869415 542.369202,407.070099 542.273010,410.441742 
	C541.869629,424.582397 543.287048,438.707123 542.568054,452.860626 
	C542.402161,456.124847 541.308594,457.590393 538.193665,457.261597 
	C534.557007,456.877747 530.169983,459.141937 527.805664,453.901001 
	C527.142395,452.430695 524.451782,452.935730 523.642944,454.643707 
	C522.234924,457.617065 519.777527,457.459869 517.301941,457.347382 
	C509.227417,456.980560 500.506409,459.655731 493.444672,452.415070 
M500.032379,421.884735 
	C496.715820,426.309998 497.904510,431.406769 498.143555,436.250671 
	C498.378448,441.010529 502.466064,444.659149 507.260712,444.857544 
	C510.736145,445.001343 514.228760,444.721313 517.705139,444.854279 
	C522.356689,445.032166 525.165833,441.423767 526.679260,438.525085 
	C528.845459,434.376221 528.406067,428.999390 526.952942,424.421692 
	C525.874390,421.023743 521.899536,419.357941 519.311707,417.158752 
	C516.418152,414.699768 511.349792,416.173340 507.222198,416.419128 
	C504.625854,416.573730 504.515533,418.762238 503.795990,420.620239 
	C503.558197,421.234131 501.744843,421.237823 500.032379,421.884735 
z"/>
<path fill="#fff" opacity="1.000000" stroke="#fff" 
	d="
M749.605835,457.342346 
	C747.891479,457.237274 746.715820,457.271912 745.780457,455.854248 
	C743.592651,452.538239 740.402649,452.242371 738.166199,455.385376 
	C736.814880,457.284393 735.288208,457.370850 733.476379,457.379913 
	C728.811279,457.403259 724.139343,457.521851 719.483215,457.312531 
	C717.061951,457.203705 713.510071,458.624420 713.320923,454.015564 
	C713.309998,453.749603 712.547607,453.422272 712.086792,453.280579 
	C703.039246,450.498901 701.016479,443.236511 700.647644,435.076508 
	C700.475220,431.260864 700.604553,427.405304 700.942932,423.598541 
	C701.577026,416.464020 705.485901,412.648193 711.980225,408.956696 
	C719.503784,404.680115 726.880005,403.880890 734.166687,405.773438 
	C739.613037,407.187988 744.247375,408.935211 749.334961,405.658813 
	C749.573364,405.505280 749.989075,405.629028 750.322144,405.620514 
	C759.239441,405.392242 759.240967,405.401459 759.244080,414.220825 
	C759.248169,425.550781 759.292358,436.880768 759.271484,448.210663 
	C759.253479,457.981262 760.194946,457.218842 749.605835,457.342346 
M720.878418,416.988281 
	C719.093262,418.092529 719.484436,420.905121 717.401733,421.661743 
	C713.616760,423.036743 713.423950,426.160095 713.368896,429.393219 
	C713.334961,431.386200 713.323059,433.382935 713.403992,435.373779 
	C713.557922,439.160187 718.707397,444.524567 722.462097,444.750061 
	C725.279480,444.919250 728.109680,445.018311 730.930359,444.961273 
	C738.499756,444.808167 742.744019,440.402191 742.738892,432.831146 
	C742.737549,430.837219 742.764526,428.841980 742.703247,426.849670 
	C742.615845,424.008057 735.814148,416.438354 733.020203,416.344788 
	C729.216553,416.217468 725.383606,415.766144 720.878418,416.988281 
z"/>
<path fill="#fff" opacity="1.000000" stroke="#fff" 
	d="
M785.297485,437.012329 
	C785.298706,442.670502 785.234924,447.832611 785.326721,452.991913 
	C785.377319,455.839417 784.356750,457.132294 781.319214,457.358917 
	C768.131775,458.342621 767.268494,457.843231 767.955200,444.591156 
	C768.524109,433.612274 768.759155,422.639313 768.704651,411.659119 
	C768.684509,407.598999 770.579529,405.631744 774.317200,405.716064 
	C778.157837,405.802673 782.355103,404.366394 785.682312,407.727234 
	C786.484924,408.537964 787.465210,408.198334 788.431091,407.684387 
	C800.013062,401.522095 811.416504,405.681671 819.423950,414.960571 
	C820.269775,415.940735 820.232910,417.079895 820.358459,418.231995 
	C821.588196,429.514862 820.856873,440.851349 821.332703,452.149506 
	C821.561340,457.579224 818.347900,457.333588 814.606689,457.430786 
	C810.659668,457.533356 808.360107,456.840332 808.583008,452.027344 
	C808.936829,444.385742 808.328064,436.694855 808.785767,429.064362 
	C809.104797,423.746155 805.107117,420.679871 802.702026,417.413269 
	C800.478210,414.392975 794.696594,415.529755 790.872681,416.773865 
	C787.584717,417.843597 785.665222,421.349426 785.410583,425.032104 
	C785.146973,428.844147 785.317017,432.686157 785.297485,437.012329 
z"/>
<path fill="#fff" opacity="1.000000" stroke="#fff" 
	d="
M692.197205,411.999298 
	C692.204956,425.635620 692.098145,438.773407 692.273254,451.907440 
	C692.328247,456.029327 690.826843,457.502930 686.735901,457.410706 
	C674.393982,457.132446 675.854431,458.205231 675.832153,446.814819 
	C675.797302,429.022583 675.820374,411.229919 675.908936,393.437866 
	C675.946106,385.972321 677.685791,384.573273 685.166260,384.622681 
	C689.081055,384.648529 691.002930,386.381439 691.512695,390.092377 
	C692.489868,397.205536 691.904785,404.365753 692.197205,411.999298 
z"/>
<path fill="#fff" opacity="1.000000" stroke="#fff" 
	d="
M406.584869,384.838318 
	C410.458344,386.529907 410.137726,389.939636 410.164490,392.692505 
	C410.359955,412.806091 410.277954,432.922180 410.350403,453.037262 
	C410.360687,455.891449 409.372711,457.178497 406.343170,457.383850 
	C395.051483,458.149200 394.848083,458.037048 394.855560,446.747711 
	C394.866760,429.791016 394.872101,412.834320 394.872009,395.877625 
	C394.871948,384.432770 394.865814,384.432770 406.584869,384.838318 
z"/>
<path fill="#fff" opacity="1.000000" stroke="#fff" 
	d="
M493.457458,508.659363 
	C494.091339,506.582428 492.718262,504.153595 495.514069,503.151367 
	C497.663940,504.082947 495.312195,505.741760 495.861908,506.853729 
	C498.114777,507.241028 500.045044,508.296387 502.173401,507.988739 
	C503.842957,510.254333 502.775177,512.672791 503.112396,514.904724 
	C503.339294,516.406616 503.540039,518.124939 505.569611,517.995850 
	C507.184082,517.893127 507.626587,516.491516 507.679260,515.060120 
	C507.810425,511.495514 507.101715,507.635773 512.535950,507.023804 
	C514.318787,506.823029 513.115417,503.418365 515.300598,502.675964 
	C517.546143,503.688721 517.022583,505.214722 516.026550,506.725586 
	C514.039917,509.739044 513.306030,513.030396 513.097656,516.622498 
	C512.861877,520.686096 510.632690,524.181458 508.730286,527.639038 
	C507.269196,530.294434 503.234589,529.733948 501.274170,526.901062 
	C497.533966,521.496277 497.398682,521.410339 493.731293,526.903015 
	C492.357819,528.960083 490.803131,529.465637 488.689667,528.988098 
	C485.126709,528.182861 483.476074,525.501099 482.911285,522.238098 
	C482.460236,519.632385 482.803833,516.891357 482.375427,514.279114 
	C481.935333,511.595734 482.056244,508.664856 479.101898,506.833160 
	C477.298798,505.715240 478.711792,504.300781 479.544830,503.155304 
	C487.085358,507.123535 487.504608,514.556702 488.386078,522.324036 
	C493.706268,518.338562 490.927948,512.776123 493.457458,508.659363 
z"/>
<path fill="#fff" opacity="1.000000" stroke="#fff" 
	d="
M787.883179,508.508118 
	C783.700623,510.801666 784.966858,512.313660 788.214539,513.431885 
	C790.213989,514.120300 792.591003,513.096436 794.688965,514.925354 
	C794.059204,518.671814 793.143738,522.720764 798.945618,523.830383 
	C800.332153,524.095581 800.079285,526.410095 799.689575,527.897339 
	C799.226685,529.663940 797.848633,530.177368 796.221619,530.078369 
	C791.578003,529.795898 786.939941,529.421448 782.295898,529.147095 
	C779.554138,528.985046 778.574646,527.523621 778.624146,524.897156 
	C778.737061,518.900940 778.804199,512.901306 778.731750,506.904999 
	C778.686279,503.140015 780.669739,501.931335 784.056152,502.021637 
	C788.376282,502.136871 792.697937,502.206573 797.019409,502.255646 
	C799.282104,502.281372 800.333862,503.235626 800.228149,505.621033 
	C800.122314,508.007751 799.135559,508.774231 796.758728,508.559143 
	C793.949768,508.304962 791.104248,508.454834 787.883179,508.508118 
z"/>
<path fill="#fff" opacity="1.000000" stroke="#fff" 
	d="
M743.533081,525.850159 
	C741.285156,528.624451 738.218323,528.138611 735.543884,528.701904 
	C733.281860,529.178162 732.694580,527.537537 732.691345,525.672241 
	C732.682739,520.694580 732.419739,515.693542 732.807434,510.744904 
	C733.333557,504.028198 743.681702,498.713928 748.607605,503.053070 
	C750.825256,505.006561 753.386230,508.528473 753.214600,512.521423 
	C753.143372,514.177124 753.185852,515.840759 753.243408,517.498474 
	C753.365906,521.029175 752.153687,525.092651 757.381287,526.998230 
	C753.410217,527.650330 749.693970,530.728760 747.318604,524.914062 
	C746.247681,522.292603 744.742371,524.162598 743.533081,525.850159 
M742.529053,513.022766 
	C744.114075,514.219482 744.249695,517.145996 747.079956,516.944702 
	C748.448914,515.285828 747.937012,513.427551 747.862854,511.667480 
	C747.774902,509.579865 746.894531,507.954865 744.510071,508.496246 
	C742.533081,508.945099 740.520996,509.807739 742.529053,513.022766 
z"/>
<path fill="#fff" opacity="1.000000" stroke="#fff" 
	d="
M419.574738,523.044739 
	C422.639252,524.629761 422.214569,526.784729 420.367645,528.345825 
	C418.523438,529.904602 416.521484,529.571411 414.945679,527.244995 
	C411.987823,522.878235 409.299072,522.433044 405.306091,525.485352 
	C402.658752,527.509033 399.087708,527.452148 396.291138,529.862854 
	C394.618896,523.397644 401.073395,519.464172 400.131165,513.535645 
	C402.714386,513.957275 403.825043,515.425110 405.129913,516.645874 
	C406.339233,517.777283 407.605347,519.094971 409.452515,517.780151 
	C410.312073,517.168274 410.784210,516.251892 410.513733,515.176453 
	C410.029602,513.251465 408.412323,513.365051 406.913544,513.280151 
	C406.096710,513.233887 405.283356,513.125793 403.711029,512.971130 
	C404.887146,509.134064 405.980042,505.568481 407.069336,502.014618 
	C412.317291,502.296631 408.372589,511.187927 415.012054,508.999481 
	C415.346191,513.796326 415.654022,518.215942 415.963776,522.662476 
	C417.053375,522.758911 418.160065,522.856873 419.574738,523.044739 
z"/>
<path fill="#fff" opacity="1.000000" stroke="#fff" 
	d="
M704.118652,508.379761 
	C699.796692,507.978455 698.252747,509.799438 698.391602,513.629761 
	C698.536194,517.619141 698.350220,521.619385 698.375000,525.614563 
	C698.390503,528.103699 697.254395,529.258789 694.753235,529.283691 
	C692.411682,529.307007 690.744812,528.584839 690.816284,525.959229 
	C690.997070,519.315674 690.290100,512.661560 691.337280,506.019806 
	C691.782776,503.194336 693.018494,501.858398 695.842957,501.897675 
	C700.672546,501.964844 705.502747,501.978027 710.332214,502.051178 
	C712.253113,502.080261 713.569946,502.750000 713.265320,505.051147 
	C713.005859,507.010406 712.600586,508.705841 710.031250,508.534790 
	C708.205688,508.413269 706.371277,508.424500 704.118652,508.379761 
z"/>
<path fill="#fff" opacity="1.000000" stroke="#fff" 
	d="
M550.942688,513.645203 
	C554.687378,512.378845 553.623718,515.531128 553.908447,516.798706 
	C554.536377,519.594116 554.709351,522.441772 558.042358,523.584106 
	C560.656067,524.479980 560.139038,526.384827 558.930664,527.945190 
	C557.526367,529.758667 555.781067,529.430115 554.223511,527.901611 
	C547.463379,521.267761 544.872986,521.248413 537.799072,527.866882 
	C536.352600,529.220215 534.558167,529.610413 533.423218,528.141052 
	C532.203369,526.561890 531.872803,524.148682 533.833984,522.791870 
	C536.583862,520.889404 537.643738,518.351501 537.974121,515.235779 
	C538.058411,514.441223 538.282898,513.307251 538.833557,512.973145 
	C542.772461,510.583649 543.898865,506.370575 545.856262,501.707458 
	C547.987122,506.037231 548.328735,510.247620 550.942688,513.645203 
M543.683472,516.052551 
	C543.448181,518.067261 544.268250,519.078247 546.220337,518.152466 
	C547.465271,517.562073 548.335205,516.148193 547.330811,514.833618 
	C546.036316,513.139404 544.785156,513.816345 543.683472,516.052551 
z"/>
<path fill="#fff" opacity="1.000000" stroke="#fff" 
	d="
M574.208862,507.533936 
	C574.537537,505.347473 573.719604,502.594360 576.468384,502.389709 
	C578.983398,502.202515 579.750000,504.705200 580.485474,506.786621 
	C580.912659,507.995697 580.402954,509.396240 581.590576,510.474426 
	C585.086060,513.647766 587.665283,513.034912 589.200073,508.494873 
	C589.622314,507.245880 589.802246,505.916565 590.192017,504.654602 
	C590.946228,502.212494 592.648010,502.095642 594.445251,503.304230 
	C596.470764,504.666321 596.959595,512.612671 594.870667,513.250183 
	C588.508606,515.191711 590.359009,520.483337 589.736023,524.638672 
	C589.441345,526.604126 590.211426,529.064209 587.502869,529.282043 
	C584.235901,529.544922 584.680298,526.682007 584.651245,524.621094 
	C584.609253,521.640137 582.691772,520.107605 581.119934,517.904602 
	C578.804565,514.659607 573.066101,513.379639 574.208862,507.533936 
z"/>
<path fill="#fff" opacity="1.000000" stroke="#fff" 
	d="
M820.505371,524.902466 
	C822.311035,523.259583 824.208313,523.686157 825.983276,523.726562 
	C828.674805,523.787781 830.738342,523.314819 831.836609,520.343201 
	C832.730591,517.924194 840.693909,516.302002 843.887329,517.928955 
	C847.293701,519.664429 845.956848,523.154785 846.025635,525.935730 
	C846.079773,528.124268 844.048645,528.265137 842.346924,528.276794 
	C839.691711,528.294922 837.057800,528.148743 835.413635,530.961365 
	C835.098083,531.501160 833.458191,531.991089 833.227173,531.747437 
	C829.807800,528.141235 824.737671,529.467896 820.844177,527.444153 
	C820.088440,527.051392 819.999146,526.079163 820.505371,524.902466 
z"/>
<path fill="#fff" opacity="1.000000" stroke="#fff" 
	d="
M845.017273,510.264709 
	C842.930847,513.550049 838.912476,511.986938 836.543030,514.521484 
	C834.956421,512.442505 835.531006,508.132812 832.001892,509.388000 
	C827.565308,510.965942 832.918030,513.765625 831.592102,516.523010 
	C828.795654,519.733765 825.078613,517.903564 821.965576,516.543884 
	C819.856567,515.622803 819.190491,512.817871 820.092285,510.363647 
	C821.409912,506.777893 829.432495,501.703918 833.246277,501.879303 
	C834.626343,501.942749 836.605774,502.324646 836.693604,503.418488 
	C837.120667,508.733917 841.980957,508.049316 845.017273,510.264709 
z"/>
<path fill="#fff" opacity="1.000000" stroke="#fff" 
	d="
M620.341675,523.390198 
	C622.997864,522.952393 625.282654,522.953247 627.857849,523.635681 
	C628.951050,520.059204 629.936584,517.028320 634.928589,517.520447 
	C639.614136,517.982544 641.403687,519.510132 641.064026,524.170349 
	C640.877991,526.721619 640.647095,527.943970 637.484253,527.992004 
	C633.990356,528.045105 630.520020,528.821045 627.204102,527.288208 
	C626.246094,529.798950 629.332031,529.393372 629.151794,531.189880 
	C628.936096,532.161987 627.807922,532.424011 627.290100,532.010681 
	C624.261536,529.592773 621.188904,527.638306 617.014709,528.435730 
	C616.021790,528.625366 615.184326,527.786499 614.973816,526.649963 
	C614.721741,525.289734 615.346191,524.318909 616.561340,523.928467 
	C617.641907,523.581238 618.827209,523.559631 620.341675,523.390198 
z"/>
<path fill="#fff" opacity="1.000000" stroke="#fff" 
	d="
M632.536377,507.082703 
	C634.578308,507.787109 636.543762,508.106964 636.033630,510.737457 
	C635.715332,512.378723 634.729553,513.402649 633.085388,513.701416 
	C630.843750,514.108765 630.498596,512.419434 629.730530,510.875610 
	C627.181519,505.751892 623.914246,510.770660 620.241089,509.194031 
	C622.630798,513.230835 629.322021,512.218872 626.827271,518.393066 
	C624.611389,518.148682 622.376404,517.735229 620.135315,517.699097 
	C617.599182,517.658203 615.645020,517.285828 615.255737,514.212769 
	C614.915100,511.523376 614.052917,508.819458 617.829529,507.811157 
	C618.397949,507.659393 619.265564,507.069458 619.284485,506.650177 
	C619.602478,499.610962 625.381165,502.777954 628.647095,501.983978 
	C631.727539,501.235107 631.511230,504.838318 632.536377,507.082703 
z"/>
<path fill="#fff" opacity="1.000000" stroke="#fff" 
	d="
M459.532349,523.736694 
	C462.050659,523.799805 463.050903,524.734436 462.653473,526.910156 
	C462.337769,528.638794 461.351562,529.597351 459.592651,529.557190 
	C454.286621,529.435974 448.980072,529.302856 443.677704,529.080505 
	C442.257416,529.020996 440.895935,528.260559 440.936035,526.703552 
	C441.133545,519.033325 439.518646,511.177582 442.935760,502.992065 
	C445.761688,506.511871 445.445251,509.919250 445.428314,513.276550 
	C445.365051,525.801331 444.291565,523.358887 455.598938,523.702209 
	C456.762482,523.737549 457.927826,523.714661 459.532349,523.736694 
z"/>
<path fill="#fff" opacity="1.000000" stroke="#fff" 
	d="
M881.457764,526.153870 
	C881.047180,522.460083 880.858337,519.156006 880.400146,515.889709 
	C880.065491,513.504272 881.337219,511.966858 882.997192,510.944336 
	C885.129761,509.630615 886.243164,511.681366 887.419495,512.982666 
	C890.939758,516.877136 890.407715,521.683289 889.744263,526.192627 
	C889.266663,529.439270 884.507385,529.533447 881.457764,526.153870 
z"/>
<path fill="#fff" opacity="1.000000" stroke="#fff" 
	d="
M865.680603,517.942261 
	C865.514221,512.186951 865.661438,506.974884 869.018311,501.814087 
	C871.692688,505.143402 871.828613,508.833252 872.162170,512.248047 
	C872.579407,516.519531 872.252441,520.860596 872.320190,525.170410 
	C872.359436,527.666748 871.739807,529.347229 868.753296,529.300293 
	C865.551697,529.249817 865.507385,527.185791 865.579956,524.882874 
	C865.647888,522.728760 865.648438,520.572571 865.680603,517.942261 
z"/>
<path fill="#fff" opacity="1.000000" stroke="#fff" 
	d="
M707.173340,518.076477 
	C706.899963,520.174194 707.671631,522.451965 705.032166,522.821228 
	C703.585266,523.023560 702.871948,521.840515 703.030029,520.592224 
	C703.321228,518.292969 701.521667,515.007507 704.505127,513.922241 
	C707.745544,512.743591 706.985291,515.853943 707.173340,518.076477 
z"/>
<path fill="#fff" opacity="1.000000" stroke="#fff" 
	d="
M255.087891,462.369904 
	C257.122162,462.746674 258.168396,463.688660 257.469360,465.486816 
	C256.928345,466.878601 255.556107,467.157898 254.176041,467.104767 
	C252.953735,467.057709 251.705688,466.645569 251.554596,465.355743 
	C251.295914,463.147278 253.159180,462.837128 255.087891,462.369904 
z"/>
<path fill="#fff" opacity="1.000000" stroke="#fff" 
	d="
M293.684692,501.068909 
	C293.764313,498.429382 292.912506,495.906128 294.890625,493.608978 
	C298.370728,495.416382 296.989746,498.343262 296.633057,500.761719 
	C296.387177,502.428436 295.118500,502.758270 293.684692,501.068909 
z"/>
<path fill="#fff" opacity="1.000000" stroke="#fff" 
	d="
M278.606628,482.346802 
	C277.119659,481.518799 275.790833,480.737091 276.945343,479.158997 
	C278.024231,477.684296 279.722931,477.412445 281.449799,477.689423 
	C282.395630,477.841064 282.920532,478.606903 282.756989,479.503418 
	C282.379608,481.571930 281.202454,482.765839 278.606628,482.346802 
z"/>
<path fill="#fff" opacity="1.000000" stroke="#fff" 
	d="
M305.734314,466.935883 
	C304.217804,466.989838 303.066986,466.971985 302.198151,465.549255 
	C303.211731,463.539581 304.540466,461.391815 307.133759,463.108643 
	C308.997437,464.342438 307.713074,465.931183 305.734314,466.935883 
z"/>
<path fill="#fff" opacity="1.000000" stroke="#fff" 
	d="
M163.970871,427.481537 
	C159.981644,428.969421 157.575348,425.918732 156.733047,423.837006 
	C155.546265,420.903992 157.299820,417.377838 159.412003,414.857971 
	C161.193085,412.733154 163.664307,413.854401 165.838562,414.735962 
	C167.293274,415.325836 168.636765,415.985870 167.869888,417.980408 
	C167.754242,418.281189 167.573212,418.809021 167.694778,418.912842 
	C175.132996,425.263824 166.464035,424.944916 163.970871,427.481537 
z"/>
</svg>