<svg version="1.1" id="Layer_1" xmlns="http://www.w3.org/2000/svg" xmlns:xlink="http://www.w3.org/1999/xlink" x="0px" y="0px"
	 width="24" height="24" viewBox="0 0 500 500" enable-background="new 0 0 500 500" xml:space="preserve">
<path fill="rgb(24, 69, 59)" opacity="1.000000" stroke="none" 
	d="
M284.000000,501.000000 
	C189.333359,501.000000 95.166710,501.000000 1.000051,501.000000 
	C1.000034,334.333405 1.000034,167.666794 1.000017,1.000140 
	C167.666565,1.000093 334.333130,1.000093 500.999756,1.000047 
	C500.999847,167.666519 500.999847,334.333038 500.999939,500.999786 
	C428.833344,501.000000 356.666656,501.000000 284.000000,501.000000 
M193.995377,130.398438 
	C193.676529,130.237701 193.357681,130.076965 193.012558,129.992462 
	C193.012558,129.992462 193.089813,130.015518 193.010406,129.078171 
	C193.032806,123.041809 193.055206,117.005455 192.974274,110.975136 
	C192.974274,110.975136 192.972015,111.078621 193.846710,110.999443 
	C196.253662,110.665688 198.660629,110.331932 201.766266,109.966980 
	C203.175446,108.337921 204.584625,106.708862 206.803146,104.708260 
	C206.870834,93.429573 206.955505,82.150902 206.962463,70.872177 
	C206.962875,70.221039 206.331131,69.569504 206.032593,68.138016 
	C205.885712,60.073166 195.372787,49.449158 186.677338,49.215927 
	C168.797256,49.157539 150.917191,49.099152 132.345612,49.225826 
	C126.049980,51.814037 119.633232,54.242474 117.357292,61.684723 
	C116.600769,64.158485 115.739998,66.600380 114.133186,69.413414 
	C114.093498,80.141434 114.032478,90.869507 114.057076,101.597382 
	C114.058922,102.402542 114.672035,103.206306 115.189445,104.581436 
	C116.061790,110.101631 119.072388,111.422066 130.010406,110.907639 
	C130.010406,116.393593 130.240036,121.884171 129.877640,127.335381 
	C129.761169,129.087555 128.399536,131.058578 127.060539,132.371658 
	C122.938629,136.413742 117.664864,139.570847 114.458717,144.195084 
	C108.339157,153.021347 103.877792,162.827698 102.190834,174.232513 
	C102.121208,189.129745 102.051582,204.026978 101.049042,218.990921 
	C94.962563,218.993912 88.874046,218.907257 82.790657,219.045883 
	C80.491486,219.098297 78.204170,219.671204 75.269951,219.985764 
	C66.413582,222.432556 58.541615,225.143890 53.348339,234.462692 
	C45.103844,249.256607 48.829674,267.942291 63.254978,276.796082 
	C69.302933,280.508148 76.154831,281.291168 83.129112,280.957001 
	C86.318916,280.804138 88.026100,281.617462 88.041481,285.373260 
	C88.055176,288.720001 89.090988,292.062561 89.725945,295.694244 
	C83.255356,298.470886 76.912376,301.222046 70.545479,303.916718 
	C64.178978,306.611145 57.685410,309.030609 51.440571,311.979401 
	C46.254810,314.428101 41.156349,316.387482 37.710583,322.231018 
	C33.103825,330.043427 31.327806,337.433197 32.775097,346.359009 
	C35.816616,365.116791 54.410652,375.514923 72.471245,369.229767 
	C81.597404,366.053833 90.361618,361.837799 100.112701,357.746643 
	C101.116676,365.285980 101.886421,372.260132 103.000420,379.178894 
	C105.201012,392.846313 107.179749,406.571808 110.090805,420.092316 
	C111.406456,426.202850 113.718933,432.626953 117.371490,437.589691 
	C123.805199,446.331146 132.837677,451.884613 145.003281,453.018829 
	C147.669220,453.012054 150.335159,453.000031 153.001099,452.999268 
	C221.317001,452.979675 289.632904,452.961243 358.752136,452.966980 
	C375.654480,449.849945 387.334534,440.398193 391.524170,423.610596 
	C394.534119,411.549988 395.908875,399.079559 397.974152,386.785431 
	C399.567108,377.302826 401.099518,367.810059 402.703888,358.048004 
	C406.754028,359.783966 410.520752,361.401184 414.289764,363.013153 
	C418.230621,364.698578 422.226044,366.267212 426.104340,368.085785 
	C433.234863,371.429382 440.569000,371.555115 448.138916,370.064331 
	C460.170441,367.694885 468.688232,355.145630 469.927429,345.612122 
	C471.935425,330.164062 466.222046,319.739685 453.418976,313.779022 
	C441.411987,308.188995 429.072388,303.316345 417.003906,297.852478 
	C415.336639,297.097626 413.261169,294.711884 413.324677,293.161041 
	C413.488251,289.166870 414.745789,285.217560 415.617584,281.001831 
	C424.507019,281.024567 433.438507,281.422638 440.782471,275.747467 
	C447.953644,270.205780 453.090424,262.822754 453.753815,253.760086 
	C454.131195,248.604568 452.437714,242.959747 450.439362,238.037659 
	C446.155792,227.486938 437.086731,222.455963 426.182587,219.961823 
	C427.974243,217.552643 429.404602,215.554184 430.911499,213.615189 
	C440.992493,200.643204 447.643738,186.214325 448.956085,169.697021 
	C450.304901,152.719818 447.648254,136.313629 439.967438,121.052971 
	C437.688904,116.525848 434.381714,112.007034 430.416901,108.947388 
	C422.894257,103.142212 415.198700,105.403023 408.688385,110.792847 
	C406.464203,105.811806 404.646240,100.817825 402.098724,96.228851 
	C396.921173,86.902222 382.018646,85.367172 375.746338,93.903259 
	C372.437408,98.406433 370.870514,104.227242 368.721008,109.535675 
	C365.675720,117.056229 363.368347,124.930267 359.730530,132.141159 
	C355.910797,139.712753 351.055756,146.789047 346.314178,153.854324 
	C344.589050,156.424866 341.887054,158.339813 339.945007,160.245468 
	C336.652100,154.794601 333.643860,149.814926 330.461517,144.547073 
	C330.439392,144.585861 330.647919,144.144318 330.922943,143.749069 
	C338.390411,133.017273 338.791016,121.714554 333.632019,109.978546 
	C331.603973,105.364967 327.356171,104.904869 323.374390,105.557030 
	C319.621155,106.171783 318.798187,109.601959 319.020874,113.095154 
	C319.125153,114.731003 318.984955,116.457512 319.468048,117.980347 
	C321.035980,122.922630 321.908386,127.788246 318.437164,132.250137 
	C317.664856,133.242859 315.852142,134.427429 314.936829,134.148880 
	C307.762665,131.965698 300.569489,131.354645 293.148285,132.546005 
	C283.093903,134.160110 274.954468,139.405273 268.743744,146.948380 
	C264.955841,151.548904 261.408936,155.338409 255.478714,156.947662 
	C245.459488,159.666534 235.655472,163.074814 227.382126,169.711746 
	C225.086319,171.553467 222.899811,173.531418 221.477371,174.749588 
	C218.400421,166.589828 216.494141,157.960892 212.097168,150.878189 
	C207.690704,143.780136 200.798279,138.225372 195.000412,131.425903 
	C194.684097,131.256058 194.367783,131.086227 194.012512,130.987259 
	C194.012512,130.987259 194.086426,130.954422 193.995377,130.398438 
z"/>
<path fill="#FFFFFF" opacity="1.000000" stroke="none" 
	d="
M194.995438,131.994202 
	C200.798279,138.225372 207.690704,143.780136 212.097168,150.878189 
	C216.494141,157.960892 218.400421,166.589828 221.477371,174.749588 
	C222.899811,173.531418 225.086319,171.553467 227.382126,169.711746 
	C235.655472,163.074814 245.459488,159.666534 255.478714,156.947662 
	C261.408936,155.338409 264.955841,151.548904 268.743744,146.948380 
	C274.954468,139.405273 283.093903,134.160110 293.148285,132.546005 
	C300.569489,131.354645 307.762665,131.965698 314.936829,134.148880 
	C315.852142,134.427429 317.664856,133.242859 318.437164,132.250137 
	C321.908386,127.788246 321.035980,122.922630 319.468048,117.980347 
	C318.984955,116.457512 319.125153,114.731003 319.020874,113.095154 
	C318.798187,109.601959 319.621155,106.171783 323.374390,105.557030 
	C327.356171,104.904869 331.603973,105.364967 333.632019,109.978546 
	C338.791016,121.714554 338.390411,133.017273 330.922943,143.749069 
	C330.647919,144.144318 330.439392,144.585861 330.461517,144.547073 
	C333.643860,149.814926 336.652100,154.794601 339.945007,160.245468 
	C341.887054,158.339813 344.589050,156.424866 346.314178,153.854324 
	C351.055756,146.789047 355.910797,139.712753 359.730530,132.141159 
	C363.368347,124.930267 365.675720,117.056229 368.721008,109.535675 
	C370.870514,104.227242 372.437408,98.406433 375.746338,93.903259 
	C382.018646,85.367172 396.921173,86.902222 402.098724,96.228851 
	C404.646240,100.817825 406.464203,105.811806 408.688385,110.792847 
	C415.198700,105.403023 422.894257,103.142212 430.416901,108.947388 
	C434.381714,112.007034 437.688904,116.525848 439.967438,121.052971 
	C447.648254,136.313629 450.304901,152.719818 448.956085,169.697021 
	C447.643738,186.214325 440.992493,200.643204 430.911499,213.615189 
	C429.404602,215.554184 427.974243,217.552643 426.182587,219.961823 
	C437.086731,222.455963 446.155792,227.486938 450.439362,238.037659 
	C452.437714,242.959747 454.131195,248.604568 453.753815,253.760086 
	C453.090424,262.822754 447.953644,270.205780 440.782471,275.747467 
	C433.438507,281.422638 424.507019,281.024567 415.617584,281.001831 
	C414.745789,285.217560 413.488251,289.166870 413.324677,293.161041 
	C413.261169,294.711884 415.336639,297.097626 417.003906,297.852478 
	C429.072388,303.316345 441.411987,308.188995 453.418976,313.779022 
	C466.222046,319.739685 471.935425,330.164062 469.927429,345.612122 
	C468.688232,355.145630 460.170441,367.694885 448.138916,370.064331 
	C440.569000,371.555115 433.234863,371.429382 426.104340,368.085785 
	C422.226044,366.267212 418.230621,364.698578 414.289764,363.013153 
	C410.520752,361.401184 406.754028,359.783966 402.703888,358.048004 
	C401.099518,367.810059 399.567108,377.302826 397.974152,386.785431 
	C395.908875,399.079559 394.534119,411.549988 391.524170,423.610596 
	C387.334534,440.398193 375.654480,449.849945 358.093506,452.624023 
	C356.782135,452.185394 356.129364,452.006042 355.476624,452.005981 
	C286.242065,451.997192 217.007523,451.997192 147.772995,452.042877 
	C146.543274,452.043701 145.313934,452.601562 144.084412,452.899475 
	C132.837677,451.884613 123.805199,446.331146 117.371490,437.589691 
	C113.718933,432.626953 111.406456,426.202850 110.090805,420.092316 
	C107.179749,406.571808 105.201012,392.846313 103.000420,379.178894 
	C101.886421,372.260132 101.116676,365.285980 100.112701,357.746643 
	C90.361618,361.837799 81.597404,366.053833 72.471245,369.229767 
	C54.410652,375.514923 35.816616,365.116791 32.775097,346.359009 
	C31.327806,337.433197 33.103825,330.043427 37.710583,322.231018 
	C41.156349,316.387482 46.254810,314.428101 51.440571,311.979401 
	C57.685410,309.030609 64.178978,306.611145 70.545479,303.916718 
	C76.912376,301.222046 83.255356,298.470886 89.725945,295.694244 
	C89.090988,292.062561 88.055176,288.720001 88.041481,285.373260 
	C88.026100,281.617462 86.318916,280.804138 83.129112,280.957001 
	C76.154831,281.291168 69.302933,280.508148 63.254978,276.796082 
	C48.829674,267.942291 45.103844,249.256607 53.348339,234.462692 
	C58.541615,225.143890 66.413582,222.432556 76.063629,220.036621 
	C85.221352,220.008636 93.585411,219.929779 102.323730,219.655304 
	C102.799942,204.254639 102.901886,189.049561 103.003838,173.844498 
	C103.877792,162.827698 108.339157,153.021347 114.458717,144.195084 
	C117.664864,139.570847 122.938629,136.413742 127.060539,132.371658 
	C128.399536,131.058578 129.761169,129.087555 129.877640,127.335381 
	C130.240036,121.884171 130.010406,116.393593 130.010406,110.907639 
	C119.072388,111.422066 116.061790,110.101631 115.144478,103.828934 
	C115.041969,91.736565 114.984428,80.396698 114.926888,69.056839 
	C115.739998,66.600380 116.600769,64.158485 117.357292,61.684723 
	C119.633232,54.242474 126.049980,51.814037 132.944611,49.470367 
	C151.399139,49.805962 169.254684,49.897018 187.110229,49.988079 
	C195.372787,49.449158 205.885712,60.073166 205.970673,69.000412 
	C205.937103,81.601807 205.965454,93.340805 205.993820,105.079803 
	C204.584625,106.708862 203.175446,108.337921 200.979477,109.928024 
	C197.785797,110.285583 195.378906,110.682106 192.972015,111.078621 
	C192.972015,111.078621 192.974274,110.975136 192.640717,111.173645 
	C192.568039,117.586617 192.828918,123.801064 193.089813,130.015518 
	C193.089813,130.015518 193.012558,129.992462 192.923325,130.311844 
	C193.251541,130.738953 193.668976,130.846695 194.086426,130.954422 
	C194.086426,130.954422 194.012512,130.987259 193.918579,131.273590 
	C194.214920,131.704666 194.605179,131.849442 194.995438,131.994202 
M189.609558,69.282089 
	C188.026596,68.153381 186.443619,67.024681 184.489136,65.125557 
	C168.978287,65.040291 153.467453,64.931648 137.956558,64.924477 
	C136.965088,64.924019 135.973267,65.709732 134.737717,66.793106 
	C133.615341,68.582291 131.649200,70.312813 131.520020,72.171043 
	C131.021393,79.343330 131.109421,86.556389 131.316071,94.573441 
	C131.794067,94.700462 132.271896,94.937813 132.750092,94.938568 
	C150.916107,94.967255 169.082230,94.993309 187.248016,94.928581 
	C188.172485,94.925293 189.094086,94.115814 189.882141,93.347366 
	C189.882141,93.347366 189.995453,93.005135 190.661102,92.484917 
	C190.407410,84.945763 190.153702,77.406609 189.609558,69.282089 
M403.519623,218.818024 
	C417.300903,207.115219 427.754364,193.113663 431.805603,175.246078 
	C433.184509,169.164536 433.119995,162.643799 432.906342,156.351196 
	C432.756104,151.926285 431.012817,147.579880 430.381866,143.141434 
	C429.298950,135.523483 425.630371,129.165802 421.491516,122.618622 
	C413.458069,161.770065 399.133301,196.595886 364.370667,219.786575 
	C376.715118,219.868073 389.059509,219.960449 401.404083,219.990936 
	C401.894287,219.992157 402.385956,219.404617 403.519623,218.818024 
M309.834503,219.960403 
	C313.706421,220.316772 313.372345,217.563797 312.850708,215.356522 
	C310.317688,204.638672 313.003265,195.110382 319.059143,186.270660 
	C323.350006,180.007324 326.290466,173.511536 323.736267,165.632370 
	C320.520874,155.713531 313.424072,149.911148 303.610382,148.273621 
	C294.779694,146.800125 287.243591,151.129852 281.959900,157.869003 
	C275.304840,166.357269 267.263763,171.225220 256.728638,173.975250 
	C240.119400,178.310760 227.585556,188.358704 222.901505,205.756393 
	C221.688904,210.260223 222.244354,215.240067 222.925659,220.045425 
	C251.618454,220.030411 280.311249,220.015396 309.834503,219.960403 
M176.743423,111.095253 
	C176.234756,110.747681 175.728592,110.101181 175.217072,110.096924 
	C166.075668,110.020782 156.933594,110.013824 147.791962,110.056259 
	C147.557785,110.057343 147.326981,110.783951 147.102966,112.087753 
	C147.102921,118.061790 147.235199,124.039604 147.064362,130.008759 
	C146.904007,135.612289 144.706772,140.108017 140.093628,143.751602 
	C133.284943,149.129318 126.156830,154.422531 123.086349,163.132523 
	C121.705231,167.050323 120.494476,171.028198 118.544678,175.509613 
	C118.409317,189.959335 118.267220,204.408997 118.175682,218.858994 
	C118.173279,219.238129 118.721756,219.620758 119.505234,219.969254 
	C119.505234,219.969254 119.997231,220.000290 120.934196,220.039825 
	C147.039169,220.042480 173.144196,220.067200 199.248962,219.993835 
	C200.840820,219.989365 202.430466,219.207550 203.890259,218.394028 
	C203.890259,218.394028 204.004257,217.995392 204.639725,217.449005 
	C204.748215,204.753174 204.877701,192.057434 204.927582,179.361374 
	C204.931824,178.282562 204.404709,177.201630 203.968475,175.304077 
	C203.067673,171.840103 202.606766,168.182465 201.183014,164.948730 
	C197.032578,155.521912 189.859909,148.752930 181.591034,142.758011 
	C179.063766,140.925735 177.022369,136.928070 176.766708,133.760010 
	C176.181976,126.514046 176.836777,119.168037 176.743423,111.095253 
M76.598564,236.806503 
	C67.242996,238.736603 64.360214,246.461319 65.138031,252.160858 
	C66.022766,258.643768 71.413681,266.131165 81.099678,264.936005 
	C83.725159,264.612030 86.424469,264.885895 89.089890,264.886322 
	C99.601578,264.888000 101.755318,266.859955 103.036385,277.157745 
	C103.525299,281.087891 104.420639,284.967468 105.198219,289.240814 
	C107.803040,287.990784 109.401207,287.140900 111.062019,286.439331 
	C134.631119,276.482635 158.206711,266.541321 181.785339,256.607208 
	C189.799835,253.230576 197.682907,252.924164 206.168365,255.755737 
	C222.289062,261.135162 231.118637,282.557434 223.031097,298.177521 
	C222.357452,299.478607 221.381638,300.926697 221.448486,302.261322 
	C222.216354,317.590698 223.359146,332.902954 224.005402,348.236450 
	C224.850128,368.278870 225.379486,388.335114 225.950760,408.388092 
	C226.083969,413.063873 223.011475,415.903137 218.217667,415.978210 
	C213.313492,416.055054 210.000778,412.915009 209.859406,408.316467 
	C209.676468,402.365265 209.297363,396.420349 209.035248,390.471283 
	C208.324127,374.330994 207.611969,358.190674 206.936707,342.048859 
	C206.569534,333.271820 206.298538,324.490662 205.909927,315.714691 
	C205.877808,314.989655 205.275452,314.289825 204.771622,313.227325 
	C199.476517,315.529266 194.456757,318.032410 189.209427,319.894043 
	C184.779663,321.465607 184.681396,324.458740 185.210052,328.194763 
	C185.922394,333.228790 186.526535,338.282440 187.008392,343.343750 
	C187.806198,351.723785 188.391541,360.124207 189.207626,368.502319 
	C190.420410,380.953064 191.866699,393.382355 192.934204,405.844727 
	C193.118286,407.993835 192.230957,410.408081 191.284698,412.442230 
	C189.636948,415.984283 186.094742,416.792603 182.926315,415.784210 
	C180.642563,415.057404 177.870377,412.887512 177.190308,410.761688 
	C176.020660,407.105499 176.328796,402.980316 175.987686,399.054504 
	C175.288834,391.011292 174.623840,382.964630 173.846786,374.928864 
	C172.946289,365.616669 171.955750,356.313049 170.974777,347.008820 
	C170.348099,341.064972 169.667923,335.126801 168.940521,328.541260 
	C162.023071,331.524261 156.041489,334.103699 150.127533,336.653961 
	C150.127533,339.263947 149.865128,341.458649 150.168167,343.572266 
	C153.161880,364.452332 156.280151,385.314514 159.288376,406.192535 
	C160.032806,411.359100 156.924332,415.423126 152.107391,415.956055 
	C146.944595,416.527313 143.562729,413.606415 142.970795,408.203400 
	C142.287064,401.962341 141.603821,395.718414 140.746094,389.499786 
	C139.224731,378.469788 137.619904,367.450623 135.949173,356.442230 
	C135.324036,352.323334 134.417160,348.247192 133.561996,343.747650 
	C129.242523,345.370331 125.644722,347.042603 121.870636,348.062683 
	C116.535614,349.504761 115.263145,353.120117 116.052353,357.867737 
	C119.376663,377.865784 122.642021,397.876373 126.277794,417.818756 
	C128.003479,427.284210 133.457458,433.872925 143.918671,436.582153 
	C145.399658,436.757538 146.880676,437.085938 148.361649,437.085754 
	C180.268295,437.081573 212.174957,437.040649 244.787964,436.915527 
	C245.498108,436.946014 246.208237,436.976501 247.861618,437.107483 
	C257.934937,437.073944 268.008270,437.040405 278.845764,436.914581 
	C279.869965,436.945374 280.894196,436.976166 282.861633,437.107452 
	C306.919708,437.072754 330.977783,437.038055 355.791626,436.899078 
	C356.557617,436.596069 357.299377,436.185883 358.093353,436.006439 
	C366.962646,434.002075 372.916412,428.496185 375.692505,420.076172 
	C377.420715,414.834503 378.001556,409.200867 378.946014,403.717102 
	C381.633087,388.116150 384.242767,372.501892 386.882263,356.892792 
	C387.459076,353.481812 386.856812,350.829803 383.077515,349.496948 
	C378.755920,347.972839 374.562561,346.085052 369.743103,344.123138 
	C369.112061,348.065613 368.476074,351.546936 368.007233,355.050629 
	C365.652985,372.644623 363.391266,390.251099 360.987671,407.838257 
	C360.229675,413.384735 355.621674,416.777283 350.456635,415.937805 
	C345.162445,415.077362 343.458893,411.664276 344.868256,404.860779 
	C345.034363,404.058990 344.861786,403.192627 344.969635,402.372437 
	C346.357422,391.814728 347.674927,381.246613 349.198792,370.708405 
	C350.674713,360.501953 352.423645,350.334869 353.880951,340.126007 
	C354.024780,339.118378 353.251312,337.312469 352.425201,336.941010 
	C346.646790,334.342743 340.742432,332.024597 334.539062,329.477448 
	C333.956940,335.224060 333.419067,339.945648 333.012268,344.678467 
	C332.290466,353.076355 331.756958,361.491547 330.947205,369.880463 
	C329.714783,382.648682 328.225067,395.392303 327.028748,408.163635 
	C326.551270,413.260895 323.813965,416.101807 318.792267,415.963715 
	C314.027527,415.832703 310.852020,412.657959 311.010559,407.844574 
	C311.101837,405.073395 311.759949,402.325745 311.978455,399.552979 
	C312.988739,386.735748 313.867523,373.907806 314.936829,361.095703 
	C315.347504,356.175476 316.210846,351.294708 316.740906,346.382294 
	C317.535950,339.014313 318.282227,331.639191 318.861176,324.252411 
	C318.925873,323.427124 317.965118,322.052887 317.149170,321.701843 
	C311.010590,319.060760 304.789154,316.612396 298.564880,314.092133 
	C297.987671,317.654053 297.185394,320.720337 297.039886,323.817535 
	C296.261932,340.374359 295.595581,356.936951 294.996002,373.501373 
	C294.600464,384.428528 294.443695,395.364380 294.027496,406.290558 
	C293.954651,408.203278 293.736694,410.933990 292.521240,411.810181 
	C289.902344,413.698090 286.660004,415.458984 283.544312,415.716461 
	C280.301147,415.984436 277.647980,413.782074 277.814972,409.734161 
	C277.948059,406.507935 277.868896,403.272369 278.023621,400.047668 
	C278.666168,386.656799 279.471619,373.272858 280.005096,359.877930 
	C280.482391,347.894165 280.646240,335.898193 281.033569,323.910339 
	C281.107635,321.617279 281.922150,319.318359 281.799408,317.054443 
	C281.471100,310.999786 282.279236,304.330719 279.993439,299.049438 
	C275.154144,287.868469 276.140015,269.806000 284.805054,261.725220 
	C292.700775,254.361908 302.776642,251.753586 313.311371,254.793839 
	C321.446930,257.141724 329.279877,260.627350 337.105255,263.942505 
	C354.013458,271.105499 370.814972,278.520111 387.698669,285.741638 
	C390.830902,287.081329 394.144135,287.997955 397.499634,289.153137 
	C398.109772,285.711395 398.657104,283.309937 398.931946,280.877716 
	C399.199158,278.513214 399.131226,276.112976 399.309143,273.735809 
	C399.680817,268.769257 403.989380,264.905548 409.139404,264.883728 
	C413.471832,264.865356 417.811462,265.041138 422.135376,264.848816 
	C430.264893,264.487152 438.470032,257.891571 437.002899,248.880005 
	C435.874603,241.949936 431.676056,237.901794 424.496185,235.512848 
	C423.026855,235.353714 421.557587,235.055542 420.088226,235.055267 
	C307.403625,235.034500 194.719009,235.031982 82.034424,235.087326 
	C80.352470,235.088150 78.670868,235.829529 76.598564,236.806503 
M334.002777,280.579865 
	C326.305908,277.224640 318.733704,273.520691 310.845612,270.700378 
	C308.025665,269.692139 304.208282,270.125519 301.254303,271.116943 
	C294.823761,273.275024 293.648956,279.168182 293.063721,285.032074 
	C292.395325,291.728821 296.589844,295.480988 301.935394,297.854004 
	C315.859131,304.034973 329.908752,309.934448 343.942230,315.865692 
	C360.343201,322.797607 376.785767,329.631226 393.200043,336.531799 
	C406.927643,342.302887 420.588654,348.236267 434.379089,353.852417 
	C442.825775,357.292358 449.509552,352.664734 453.044678,345.212219 
	C455.771759,339.463348 454.266235,331.521820 445.575104,327.935730 
	C439.643372,325.488159 433.729950,322.995697 427.822479,320.489960 
	C396.770172,307.318756 365.722382,294.136902 334.002777,280.579865 
M88.609238,314.154480 
	C78.596878,318.370087 68.485191,322.370605 58.628258,326.922791 
	C55.362221,328.431152 51.884487,330.813782 50.033123,333.758392 
	C46.787594,338.920471 48.362446,346.455994 52.376110,350.590088 
	C57.033371,355.387115 61.440376,356.140198 68.495895,353.157745 
	C90.825874,343.718689 113.125488,334.207764 135.460541,324.780792 
	C153.997986,316.956635 172.600143,309.285004 191.105240,301.385651 
	C196.366241,299.139832 202.063492,297.135590 206.321381,293.549194 
	C210.242813,290.246185 211.284851,284.796906 208.628113,279.540833 
	C206.079300,274.498230 202.936462,269.543823 196.606018,270.197388 
	C191.676498,270.706329 186.782776,272.619720 182.127136,274.528442 
	C167.347488,280.587891 152.681686,286.925385 137.981445,293.177948 
	C121.762466,300.076477 105.554108,306.999969 88.609238,314.154480 
M372.601166,143.036804 
	C371.301422,145.306046 370.023102,147.587875 368.698334,149.842407 
	C361.903473,161.406235 353.950714,172.218384 343.667511,180.758957 
	C336.972626,186.319290 333.997070,193.839111 329.937042,200.811005 
	C328.395477,203.458160 328.387268,207.151260 328.207855,210.396805 
	C328.017212,213.845367 329.468994,215.890961 333.411285,214.276337 
	C336.156250,213.152100 339.237610,212.581161 341.662689,210.991272 
	C350.981293,204.881927 360.324280,198.762115 369.189056,192.028625 
	C373.542847,188.721573 377.129150,184.269821 380.584137,179.953064 
	C383.778412,175.962006 387.007721,171.750641 389.010254,167.113220 
	C391.896027,160.430450 395.117249,153.372253 395.600037,146.297150 
	C396.281158,136.315445 396.239838,125.985115 392.814636,116.219116 
	C391.520325,112.528725 389.822601,108.979820 388.306488,105.361015 
	C382.996857,118.181328 377.985016,130.282654 372.601166,143.036804 
z"/>
<path fill="#FFFFFF" opacity="1.000000" stroke="none" 
	d="
M144.543854,452.959167 
	C145.313934,452.601562 146.543274,452.043701 147.772995,452.042877 
	C217.007523,451.997192 286.242065,451.997192 355.476624,452.005981 
	C356.129364,452.006042 356.782135,452.185394 357.691833,452.611847 
	C289.632904,452.961243 221.317001,452.979675 153.001099,452.999268 
	C150.335159,453.000031 147.669220,453.012054 144.543854,452.959167 
z"/>
<path fill="#FFFFFF" opacity="1.000000" stroke="none" 
	d="
M186.893784,49.602005 
	C169.254684,49.897018 151.399139,49.805962 133.290344,49.377838 
	C150.917191,49.099152 168.797256,49.157539 186.893784,49.602005 
z"/>
<path fill="#FFFFFF" opacity="1.000000" stroke="none" 
	d="
M102.597336,174.038513 
	C102.901886,189.049561 102.799942,204.254639 102.306343,219.422745 
	C101.914696,219.385788 101.981956,218.924210 101.981956,218.924210 
	C102.051582,204.026978 102.121208,189.129745 102.597336,174.038513 
z"/>
<path fill="#FFFFFF" opacity="1.000000" stroke="none" 
	d="
M206.398483,104.894035 
	C205.965454,93.340805 205.937103,81.601807 205.951157,69.390472 
	C206.331131,69.569504 206.962875,70.221039 206.962463,70.872177 
	C206.955505,82.150902 206.870834,93.429573 206.398483,104.894035 
z"/>
<path fill="#FFFFFF" opacity="1.000000" stroke="none" 
	d="
M114.530037,69.235123 
	C114.984428,80.396698 115.041969,91.736565 115.050247,103.543579 
	C114.672035,103.206306 114.058922,102.402542 114.057076,101.597382 
	C114.032478,90.869507 114.093498,80.141434 114.530037,69.235123 
z"/>
<path fill="#FFFFFF" opacity="1.000000" stroke="none" 
	d="
M101.515503,218.957565 
	C101.981956,218.924210 101.914696,219.385788 101.932083,219.618347 
	C93.585411,219.929779 85.221352,220.008636 76.384377,220.047180 
	C78.204170,219.671204 80.491486,219.098297 82.790657,219.045883 
	C88.874046,218.907257 94.962563,218.993912 101.515503,218.957565 
z"/>
<path fill="#FFFFFF" opacity="1.000000" stroke="none" 
	d="
M193.050110,129.546844 
	C192.828918,123.801064 192.568039,117.586617 192.692383,111.170624 
	C193.055206,117.005455 193.032806,123.041809 193.050110,129.546844 
z"/>
<path fill="#FFFFFF" opacity="1.000000" stroke="none" 
	d="
M193.409363,111.039032 
	C195.378906,110.682106 197.785797,110.285583 200.630127,109.943619 
	C198.660629,110.331932 196.253662,110.665688 193.409363,111.039032 
z"/>
<path fill="#FFFFFF" opacity="1.000000" stroke="none" 
	d="
M194.997925,131.710052 
	C194.605179,131.849442 194.214920,131.704666 193.938065,131.238144 
	C194.367783,131.086227 194.684097,131.256058 194.997925,131.710052 
z"/>
<path fill="#FFFFFF" opacity="1.000000" stroke="none" 
	d="
M194.040894,130.676422 
	C193.668976,130.846695 193.251541,130.738953 192.936462,130.273727 
	C193.357681,130.076965 193.676529,130.237701 194.040894,130.676422 
z"/>
<path fill="#FFFFFF" opacity="1.000000" stroke="none" 
	d="
M143.237854,436.180450 
	C133.457458,433.872925 128.003479,427.284210 126.277794,417.818756 
	C122.642021,397.876373 119.376663,377.865784 116.052353,357.867737 
	C115.263145,353.120117 116.535614,349.504761 121.870636,348.062683 
	C125.644722,347.042603 129.242523,345.370331 133.561996,343.747650 
	C134.417160,348.247192 135.324036,352.323334 135.949173,356.442230 
	C137.619904,367.450623 139.224731,378.469788 140.746094,389.499786 
	C141.603821,395.718414 142.287064,401.962341 142.970795,408.203400 
	C143.562729,413.606415 146.944595,416.527313 152.107391,415.956055 
	C156.924332,415.423126 160.032806,411.359100 159.288376,406.192535 
	C156.280151,385.314514 153.161880,364.452332 150.168167,343.572266 
	C149.865128,341.458649 150.127533,339.263947 150.127533,336.653961 
	C156.041489,334.103699 162.023071,331.524261 168.940521,328.541260 
	C169.667923,335.126801 170.348099,341.064972 170.974777,347.008820 
	C171.955750,356.313049 172.946289,365.616669 173.846786,374.928864 
	C174.623840,382.964630 175.288834,391.011292 175.987686,399.054504 
	C176.328796,402.980316 176.020660,407.105499 177.190308,410.761688 
	C177.870377,412.887512 180.642563,415.057404 182.926315,415.784210 
	C186.094742,416.792603 189.636948,415.984283 191.284698,412.442230 
	C192.230957,410.408081 193.118286,407.993835 192.934204,405.844727 
	C191.866699,393.382355 190.420410,380.953064 189.207626,368.502319 
	C188.391541,360.124207 187.806198,351.723785 187.008392,343.343750 
	C186.526535,338.282440 185.922394,333.228790 185.210052,328.194763 
	C184.681396,324.458740 184.779663,321.465607 189.209427,319.894043 
	C194.456757,318.032410 199.476517,315.529266 204.771622,313.227325 
	C205.275452,314.289825 205.877808,314.989655 205.909927,315.714691 
	C206.298538,324.490662 206.569534,333.271820 206.936707,342.048859 
	C207.611969,358.190674 208.324127,374.330994 209.035248,390.471283 
	C209.297363,396.420349 209.676468,402.365265 209.859406,408.316467 
	C210.000778,412.915009 213.313492,416.055054 218.217667,415.978210 
	C223.011475,415.903137 226.083969,413.063873 225.950760,408.388092 
	C225.379486,388.335114 224.850128,368.278870 224.005402,348.236450 
	C223.359146,332.902954 222.216354,317.590698 221.448486,302.261322 
	C221.381638,300.926697 222.357452,299.478607 223.031097,298.177521 
	C231.118637,282.557434 222.289062,261.135162 206.168365,255.755737 
	C197.682907,252.924164 189.799835,253.230576 181.785339,256.607208 
	C158.206711,266.541321 134.631119,276.482635 111.062019,286.439331 
	C109.401207,287.140900 107.803040,287.990784 105.198219,289.240814 
	C104.420639,284.967468 103.525299,281.087891 103.036385,277.157745 
	C101.755318,266.859955 99.601578,264.888000 89.089890,264.886322 
	C86.424469,264.885895 83.725159,264.612030 81.099678,264.936005 
	C71.413681,266.131165 66.022766,258.643768 65.138031,252.160858 
	C64.360214,246.461319 67.242996,238.736603 77.254089,236.413422 
	C192.451096,236.012924 306.992554,236.004959 421.534027,236.006241 
	C422.693481,236.006256 423.852966,236.128281 425.012421,236.193329 
	C431.676056,237.901794 435.874603,241.949936 437.002899,248.880005 
	C438.470032,257.891571 430.264893,264.487152 422.135376,264.848816 
	C417.811462,265.041138 413.471832,264.865356 409.139404,264.883728 
	C403.989380,264.905548 399.680817,268.769257 399.309143,273.735809 
	C399.131226,276.112976 399.199158,278.513214 398.931946,280.877716 
	C398.657104,283.309937 398.109772,285.711395 397.499634,289.153137 
	C394.144135,287.997955 390.830902,287.081329 387.698669,285.741638 
	C370.814972,278.520111 354.013458,271.105499 337.105255,263.942505 
	C329.279877,260.627350 321.446930,257.141724 313.311371,254.793839 
	C302.776642,251.753586 292.700775,254.361908 284.805054,261.725220 
	C276.140015,269.806000 275.154144,287.868469 279.993439,299.049438 
	C282.279236,304.330719 281.471100,310.999786 281.799408,317.054443 
	C281.922150,319.318359 281.107635,321.617279 281.033569,323.910339 
	C280.646240,335.898193 280.482391,347.894165 280.005096,359.877930 
	C279.471619,373.272858 278.666168,386.656799 278.023621,400.047668 
	C277.868896,403.272369 277.948059,406.507935 277.814972,409.734161 
	C277.647980,413.782074 280.301147,415.984436 283.544312,415.716461 
	C286.660004,415.458984 289.902344,413.698090 292.521240,411.810181 
	C293.736694,410.933990 293.954651,408.203278 294.027496,406.290558 
	C294.443695,395.364380 294.600464,384.428528 294.996002,373.501373 
	C295.595581,356.936951 296.261932,340.374359 297.039886,323.817535 
	C297.185394,320.720337 297.987671,317.654053 298.564880,314.092133 
	C304.789154,316.612396 311.010590,319.060760 317.149170,321.701843 
	C317.965118,322.052887 318.925873,323.427124 318.861176,324.252411 
	C318.282227,331.639191 317.535950,339.014313 316.740906,346.382294 
	C316.210846,351.294708 315.347504,356.175476 314.936829,361.095703 
	C313.867523,373.907806 312.988739,386.735748 311.978455,399.552979 
	C311.759949,402.325745 311.101837,405.073395 311.010559,407.844574 
	C310.852020,412.657959 314.027527,415.832703 318.792267,415.963715 
	C323.813965,416.101807 326.551270,413.260895 327.028748,408.163635 
	C328.225067,395.392303 329.714783,382.648682 330.947205,369.880463 
	C331.756958,361.491547 332.290466,353.076355 333.012268,344.678467 
	C333.419067,339.945648 333.956940,335.224060 334.539062,329.477448 
	C340.742432,332.024597 346.646790,334.342743 352.425201,336.941010 
	C353.251312,337.312469 354.024780,339.118378 353.880951,340.126007 
	C352.423645,350.334869 350.674713,360.501953 349.198792,370.708405 
	C347.674927,381.246613 346.357422,391.814728 344.969635,402.372437 
	C344.861786,403.192627 345.034363,404.058990 344.868256,404.860779 
	C343.458893,411.664276 345.162445,415.077362 350.456635,415.937805 
	C355.621674,416.777283 360.229675,413.384735 360.987671,407.838257 
	C363.391266,390.251099 365.652985,372.644623 368.007233,355.050629 
	C368.476074,351.546936 369.112061,348.065613 369.743103,344.123138 
	C374.562561,346.085052 378.755920,347.972839 383.077515,349.496948 
	C386.856812,350.829803 387.459076,353.481812 386.882263,356.892792 
	C384.242767,372.501892 381.633087,388.116150 378.946014,403.717102 
	C378.001556,409.200867 377.420715,414.834503 375.692505,420.076172 
	C372.916412,428.496185 366.962646,434.002075 358.093353,436.006439 
	C357.299377,436.185883 356.557617,436.596069 355.219543,436.555420 
	C331.060791,436.141357 307.474121,436.062805 283.887451,436.042999 
	C283.231354,436.042450 282.574738,436.671478 281.918396,437.006927 
	C280.894196,436.976166 279.869965,436.945374 278.270020,436.560699 
	C268.089844,436.138123 258.485413,436.049561 248.880951,436.044586 
	C248.226929,436.044250 247.572571,436.671539 246.918381,437.006958 
	C246.208237,436.976501 245.498108,436.946014 244.241119,436.561157 
	C210.208786,436.198029 176.723328,436.189240 143.237854,436.180450 
M259.826233,409.696808 
	C259.894562,370.739685 259.967987,331.782562 259.988068,292.825409 
	C259.988403,292.173218 259.341492,291.520691 258.747498,290.215210 
	C253.854202,284.094299 247.521271,284.371613 243.197311,291.252594 
	C243.127304,291.743591 242.996078,292.234619 242.996002,292.725616 
	C242.990250,330.693390 242.985977,368.661163 243.040771,406.628876 
	C243.042435,407.781586 243.668457,408.933350 244.258026,410.766479 
	C245.014908,414.826508 248.196228,415.822510 251.521698,415.854401 
	C255.295181,415.890656 258.620483,414.661560 259.826233,409.696808 
z"/>
<path fill="#FFFFFF" opacity="1.000000" stroke="none" 
	d="
M119.206421,174.978806 
	C120.494476,171.028198 121.705231,167.050323 123.086349,163.132523 
	C126.156830,154.422531 133.284943,149.129318 140.093628,143.751602 
	C144.706772,140.108017 146.904007,135.612289 147.064362,130.008759 
	C147.235199,124.039604 147.102921,118.061790 147.556412,111.558258 
	C152.792572,111.022018 157.578568,110.901489 162.357071,111.040184 
	C167.237961,111.181847 172.111450,111.577950 176.988190,111.862663 
	C176.836777,119.168037 176.181976,126.514046 176.766708,133.760010 
	C177.022369,136.928070 179.063766,140.925735 181.591034,142.758011 
	C189.859909,148.752930 197.032578,155.521912 201.183014,164.948730 
	C202.606766,168.182465 203.067673,171.840103 204.012543,176.171539 
	C204.039169,190.691116 204.021713,204.343262 204.004257,217.995392 
	C204.004257,217.995392 203.890259,218.394028 203.495544,218.693481 
	C177.040695,218.995346 150.980484,218.979660 124.920479,219.042938 
	C123.278633,219.046936 121.638275,219.666901 119.997231,220.000290 
	C119.997231,220.000290 119.505234,219.969254 119.246140,219.516876 
	C119.060173,204.369263 119.133301,189.674042 119.206421,174.978806 
z"/>
<path fill="#FFFFFF" opacity="1.000000" stroke="none" 
	d="
M221.987671,220.001266 
	C222.244354,215.240067 221.688904,210.260223 222.901505,205.756393 
	C227.585556,188.358704 240.119400,178.310760 256.728638,173.975250 
	C267.263763,171.225220 275.304840,166.357269 281.959900,157.869003 
	C287.243591,151.129852 294.779694,146.800125 303.610382,148.273621 
	C313.424072,149.911148 320.520874,155.713531 323.736267,165.632370 
	C326.290466,173.511536 323.350006,180.007324 319.059143,186.270660 
	C313.003265,195.110382 310.317688,204.638672 312.850708,215.356522 
	C313.372345,217.563797 313.706421,220.316772 309.246948,219.574173 
	C280.413879,219.126221 252.168381,219.057861 223.922852,219.044678 
	C223.277939,219.044373 222.632736,219.668442 221.987671,220.001266 
z"/>
<path fill="#FFFFFF" opacity="1.000000" stroke="none" 
	d="
M334.337891,280.769287 
	C365.722382,294.136902 396.770172,307.318756 427.822479,320.489960 
	C433.729950,322.995697 439.643372,325.488159 445.575104,327.935730 
	C454.266235,331.521820 455.771759,339.463348 453.044678,345.212219 
	C449.509552,352.664734 442.825775,357.292358 434.379089,353.852417 
	C420.588654,348.236267 406.927643,342.302887 393.200043,336.531799 
	C376.785767,329.631226 360.343201,322.797607 343.942230,315.865692 
	C329.908752,309.934448 315.859131,304.034973 301.935394,297.854004 
	C296.589844,295.480988 292.395325,291.728821 293.063721,285.032074 
	C293.648956,279.168182 294.823761,273.275024 301.254303,271.116943 
	C304.208282,270.125519 308.025665,269.692139 310.845612,270.700378 
	C318.733704,273.520691 326.305908,277.224640 334.337891,280.769287 
z"/>
<path fill="#FFFFFF" opacity="1.000000" stroke="none" 
	d="
M88.975174,314.033539 
	C105.554108,306.999969 121.762466,300.076477 137.981445,293.177948 
	C152.681686,286.925385 167.347488,280.587891 182.127136,274.528442 
	C186.782776,272.619720 191.676498,270.706329 196.606018,270.197388 
	C202.936462,269.543823 206.079300,274.498230 208.628113,279.540833 
	C211.284851,284.796906 210.242813,290.246185 206.321381,293.549194 
	C202.063492,297.135590 196.366241,299.139832 191.105240,301.385651 
	C172.600143,309.285004 153.997986,316.956635 135.460541,324.780792 
	C113.125488,334.207764 90.825874,343.718689 68.495895,353.157745 
	C61.440376,356.140198 57.033371,355.387115 52.376110,350.590088 
	C48.362446,346.455994 46.787594,338.920471 50.033123,333.758392 
	C51.884487,330.813782 55.362221,328.431152 58.628258,326.922791 
	C68.485191,322.370605 78.596878,318.370087 88.975174,314.033539 
z"/>
<path fill="#FFFFFF" opacity="1.000000" stroke="none" 
	d="
M372.787170,142.710388 
	C377.985016,130.282654 382.996857,118.181328 388.306488,105.361015 
	C389.822601,108.979820 391.520325,112.528725 392.814636,116.219116 
	C396.239838,125.985115 396.281158,136.315445 395.600037,146.297150 
	C395.117249,153.372253 391.896027,160.430450 389.010254,167.113220 
	C387.007721,171.750641 383.778412,175.962006 380.584137,179.953064 
	C377.129150,184.269821 373.542847,188.721573 369.189056,192.028625 
	C360.324280,198.762115 350.981293,204.881927 341.662689,210.991272 
	C339.237610,212.581161 336.156250,213.152100 333.411285,214.276337 
	C329.468994,215.890961 328.017212,213.845367 328.207855,210.396805 
	C328.387268,207.151260 328.395477,203.458160 329.937042,200.811005 
	C333.997070,193.839111 336.972626,186.319290 343.667511,180.758957 
	C353.950714,172.218384 361.903473,161.406235 368.698334,149.842407 
	C370.023102,147.587875 371.301422,145.306046 372.787170,142.710388 
z"/>
<path fill="#FFFFFF" opacity="1.000000" stroke="none" 
	d="
M363.998871,218.992233 
	C399.133301,196.595886 413.458069,161.770065 421.491516,122.618622 
	C425.630371,129.165802 429.298950,135.523483 430.381866,143.141434 
	C431.012817,147.579880 432.756104,151.926285 432.906342,156.351196 
	C433.119995,162.643799 433.184509,169.164536 431.805603,175.246078 
	C427.754364,193.113663 417.300903,207.115219 402.739258,218.911896 
	C389.305542,219.001251 376.652222,218.996750 363.998871,218.992233 
z"/>
<path fill="#FFFFFF" opacity="1.000000" stroke="none" 
	d="
M184.860657,65.895966 
	C186.443619,67.024681 188.026596,68.153381 189.492188,69.841690 
	C189.581696,77.935905 189.788574,85.470520 189.995453,93.005135 
	C189.995453,93.005135 189.882141,93.347366 189.499054,93.658035 
	C169.736908,93.897217 150.357880,93.825737 130.978836,93.754257 
	C131.109421,86.556389 131.021393,79.343330 131.520020,72.171043 
	C131.649200,70.312813 133.615341,68.582291 135.320694,66.363892 
	C152.222672,65.921776 168.541656,65.908875 184.860657,65.895966 
z"/>
<path fill="#FFFFFF" opacity="1.000000" stroke="none" 
	d="
M424.754303,235.853088 
	C423.852966,236.128281 422.693481,236.006256 421.534027,236.006241 
	C306.992554,236.004959 192.451096,236.012924 77.449364,236.122803 
	C78.670868,235.829529 80.352470,235.088150 82.034424,235.087326 
	C194.719009,235.031982 307.403625,235.034500 420.088226,235.055267 
	C421.557587,235.055542 423.026855,235.353714 424.754303,235.853088 
z"/>
<path fill="#FFFFFF" opacity="1.000000" stroke="none" 
	d="
M143.578262,436.381287 
	C176.723328,436.189240 210.208786,436.198029 243.887939,436.606812 
	C212.174957,437.040649 180.268295,437.081573 148.361649,437.085754 
	C146.880676,437.085938 145.399658,436.757538 143.578262,436.381287 
z"/>
<path fill="#FFFFFF" opacity="1.000000" stroke="none" 
	d="
M222.456665,220.023346 
	C222.632736,219.668442 223.277939,219.044373 223.922852,219.044678 
	C252.168381,219.057861 280.413879,219.126221 308.831726,219.594162 
	C280.311249,220.015396 251.618454,220.030411 222.456665,220.023346 
z"/>
<path fill="#FFFFFF" opacity="1.000000" stroke="none" 
	d="
M120.465714,220.020050 
	C121.638275,219.666901 123.278633,219.046936 124.920479,219.042938 
	C150.980484,218.979660 177.040695,218.995346 203.561005,218.890198 
	C202.430466,219.207550 200.840820,219.989365 199.248962,219.993835 
	C173.144196,220.067200 147.039169,220.042480 120.465714,220.020050 
z"/>
<path fill="#FFFFFF" opacity="1.000000" stroke="none" 
	d="
M282.390015,437.057190 
	C282.574738,436.671478 283.231354,436.042450 283.887451,436.042999 
	C307.474121,436.062805 331.060791,436.141357 354.841644,436.607544 
	C330.977783,437.038055 306.919708,437.072754 282.390015,437.057190 
z"/>
<path fill="#FFFFFF" opacity="1.000000" stroke="none" 
	d="
M131.147461,94.163849 
	C150.357880,93.825737 169.736908,93.897217 189.566483,93.825195 
	C189.094086,94.115814 188.172485,94.925293 187.248016,94.928581 
	C169.082230,94.993309 150.916107,94.967255 132.750092,94.938568 
	C132.271896,94.937813 131.794067,94.700462 131.147461,94.163849 
z"/>
<path fill="#FFFFFF" opacity="1.000000" stroke="none" 
	d="
M184.674896,65.510757 
	C168.541656,65.908875 152.222672,65.921776 135.442627,66.032196 
	C135.973267,65.709732 136.965088,64.924019 137.956558,64.924477 
	C153.467453,64.931648 168.978287,65.040291 184.674896,65.510757 
z"/>
<path fill="#FFFFFF" opacity="1.000000" stroke="none" 
	d="
M118.875549,175.244202 
	C119.133301,189.674042 119.060173,204.369263 119.000198,219.533142 
	C118.721756,219.620758 118.173279,219.238129 118.175682,218.858994 
	C118.267220,204.408997 118.409317,189.959335 118.875549,175.244202 
z"/>
<path fill="#FFFFFF" opacity="1.000000" stroke="none" 
	d="
M204.321991,217.722198 
	C204.021713,204.343262 204.039169,190.691116 204.090530,176.580338 
	C204.404709,177.201630 204.931824,178.282562 204.927582,179.361374 
	C204.877701,192.057434 204.748215,204.753174 204.321991,217.722198 
z"/>
<path fill="#FFFFFF" opacity="1.000000" stroke="none" 
	d="
M364.184753,219.389404 
	C376.652222,218.996750 389.305542,219.001251 402.417908,219.048584 
	C402.385956,219.404617 401.894287,219.992157 401.404083,219.990936 
	C389.059509,219.960449 376.715118,219.868073 364.184753,219.389404 
z"/>
<path fill="#FFFFFF" opacity="1.000000" stroke="none" 
	d="
M176.865814,111.478958 
	C172.111450,111.577950 167.237961,111.181847 162.357071,111.040184 
	C157.578568,110.901489 152.792572,111.022018 147.552231,111.100479 
	C147.326981,110.783951 147.557785,110.057343 147.791962,110.056259 
	C156.933594,110.013824 166.075668,110.020782 175.217072,110.096924 
	C175.728592,110.101181 176.234756,110.747681 176.865814,111.478958 
z"/>
<path fill="#FFFFFF" opacity="1.000000" stroke="none" 
	d="
M247.389999,437.057220 
	C247.572571,436.671539 248.226929,436.044250 248.880951,436.044586 
	C258.485413,436.049561 268.089844,436.138123 277.887939,436.606842 
	C268.008270,437.040405 257.934937,437.073944 247.389999,437.057220 
z"/>
<path fill="#FFFFFF" opacity="1.000000" stroke="none" 
	d="
M190.328278,92.745026 
	C189.788574,85.470520 189.581696,77.935905 189.637405,70.134369 
	C190.153702,77.406609 190.407410,84.945763 190.328278,92.745026 
z"/>
<path fill="#FFFFFF" opacity="1.000000" stroke="none" 
	d="
M244.004089,290.860840 
	C247.521271,284.371613 253.854202,284.094299 258.820831,291.016846 
	C258.929108,331.218445 258.964050,370.618378 258.998993,410.018311 
	C258.620483,414.661560 255.295181,415.890656 251.521698,415.854401 
	C248.196228,415.822510 245.014908,414.826508 244.159393,409.952393 
	C244.041870,369.712494 244.022980,330.286652 244.004089,290.860840 
z"/>
<path fill="#FFFFFF" opacity="1.000000" stroke="none" 
	d="
M259.412598,409.857544 
	C258.964050,370.618378 258.929108,331.218445 258.945374,291.343414 
	C259.341492,291.520691 259.988403,292.173218 259.988068,292.825409 
	C259.967987,331.782562 259.894562,370.739685 259.412598,409.857544 
z"/>
<path fill="#FFFFFF" opacity="1.000000" stroke="none" 
	d="
M243.600708,291.056702 
	C244.022980,330.286652 244.041870,369.712494 244.032074,409.611938 
	C243.668457,408.933350 243.042435,407.781586 243.040771,406.628876 
	C242.985977,368.661163 242.990250,330.693390 242.996002,292.725616 
	C242.996078,292.234619 243.127304,291.743591 243.600708,291.056702 
z"/>
</svg>