<svg version="1.1" id="Layer_1" xmlns="http://www.w3.org/2000/svg" xmlns:xlink="http://www.w3.org/1999/xlink" x="0px" y="0px"
	 width="24" height="24" viewBox="0 0 512 512" enable-background="new 0 0 512 512" xml:space="preserve">
<path fill="rgb(24, 69, 59)" opacity="1.000000" stroke="none" 
	d="
M513.000000,64.000000 
	C513.000000,137.020889 513.000000,210.041794 512.684326,283.239929 
	C511.623169,284.452576 510.582336,285.384399 510.177277,286.539185 
	C505.489502,299.903076 495.760590,308.222870 482.779022,312.460907 
	C476.261292,314.588684 469.111542,314.780548 462.000000,315.886414 
	C462.000000,317.409637 462.000000,319.223633 462.000000,321.037628 
	C462.000000,359.862732 462.023712,398.687866 461.956635,437.512878 
	C461.951050,440.747375 461.662994,444.056183 460.945526,447.202576 
	C456.343750,467.381927 438.735168,480.785950 420.956482,480.830688 
	C294.650726,481.148529 168.343735,481.037018 42.037331,480.902100 
	C34.942902,480.894531 28.251997,478.541443 22.030109,474.667175 
	C12.814125,468.928497 6.450040,461.164307 2.904848,450.959473 
	C2.737326,450.477264 1.655840,450.312561 0.999997,450.000000 
	C1.000000,379.312439 1.000000,308.624878 1.319670,237.761963 
	C2.090509,236.956619 2.706955,236.388290 2.968425,235.687531 
	C8.094088,221.950012 17.299347,212.197968 31.501785,208.152924 
	C37.970749,206.310471 44.897915,206.076813 52.000000,205.058548 
	C52.000000,203.904251 52.000000,202.269150 52.000000,200.634033 
	C52.000000,158.660385 52.111176,116.686317 51.953648,74.713264 
	C51.873474,53.351582 71.805336,33.058487 93.741608,33.042915 
	C218.496552,32.954369 343.251770,33.106613 468.006409,32.890633 
	C487.825653,32.856323 504.702606,44.740398 511.056641,62.544933 
	C511.283325,63.180237 512.333557,63.521629 513.000000,64.000000 
M128.500000,286.000000 
	C91.409653,286.000000 54.319298,286.000000 17.225491,286.000000 
	C17.109896,287.032623 17.009525,287.510956 17.009449,287.989288 
	C17.001427,337.812836 16.908709,387.636810 17.164179,437.459045 
	C17.186098,441.733337 18.782242,446.416565 20.924080,450.183807 
	C27.075701,461.003845 37.327927,464.968750 49.254978,464.973206 
	C168.231567,465.017395 287.208160,465.011841 406.184723,464.957794 
	C411.094971,464.955566 416.006561,464.356567 420.914764,463.998260 
	C434.909027,462.976746 445.961090,450.170502 445.978546,435.420898 
	C446.035706,387.097137 446.002045,338.773254 445.990051,290.449432 
	C445.989716,289.018005 445.842041,287.586670 445.754486,286.000000 
	C340.091370,286.000000 234.795685,286.000000 128.500000,286.000000 
M374.500000,163.000000 
	C272.419434,163.000000 170.338852,163.000000 68.268524,163.000000 
	C68.268524,177.606354 68.268524,191.676712 68.268524,206.000000 
	C70.340858,206.000000 72.147202,206.000000 73.953545,206.000000 
	C189.430206,206.000000 304.906952,205.928909 420.383423,206.076523 
	C437.739685,206.098709 453.006622,217.848267 458.814117,233.355606 
	C460.917480,238.971970 461.700256,245.327423 461.862335,251.378418 
	C462.275757,266.808594 462.000000,282.257233 462.000000,298.000000 
	C464.442261,298.000000 466.412781,297.912354 468.373535,298.013824 
	C484.621338,298.854706 497.120453,283.901825 497.051361,269.466248 
	C496.890381,235.807144 497.000000,202.146759 497.000000,168.486893 
	C497.000000,166.723724 497.000000,164.960556 497.000000,163.000000 
	C456.109283,163.000000 415.804626,163.000000 374.500000,163.000000 
M107.500000,222.000000 
	C87.002037,222.000000 66.503738,221.929108 46.006233,222.025879 
	C33.179527,222.086441 19.556149,232.186737 18.083420,244.573883 
	C17.138227,252.523911 17.041073,260.574768 16.550341,268.805908 
	C160.137573,268.805908 302.866150,268.805908 446.000000,268.805908 
	C446.000000,263.167053 446.014191,257.712250 445.997437,252.257538 
	C445.942413,234.339706 432.912292,222.065262 415.469879,222.048462 
	C313.146698,221.949829 210.823318,222.000000 107.500000,222.000000 
M194.500000,49.000000 
	C162.166687,49.000000 129.833359,49.020668 97.500061,48.989975 
	C84.305069,48.977448 70.492897,59.319080 69.071609,71.582237 
	C68.187981,79.206421 68.047150,86.916687 67.560677,94.786743 
	C211.156250,94.786743 353.894684,94.786743 497.000000,94.786743 
	C497.000000,89.622169 496.786896,84.651054 497.038940,79.703644 
	C497.881378,63.168995 484.155365,48.893257 466.499817,48.924973 
	C376.166779,49.087227 285.833313,49.000000 194.500000,49.000000 
M371.500000,146.000000 
	C413.260712,146.000000 455.021454,146.000000 496.709717,146.000000 
	C496.709717,134.018723 496.709717,122.612770 496.709717,111.286552 
	C353.686127,111.286552 210.953018,111.286552 68.290314,111.286552 
	C68.290314,122.981293 68.290314,134.387253 68.290314,145.739334 
	C68.891281,145.859512 69.203903,145.976791 69.516548,145.976837 
	C169.844360,145.989868 270.172180,145.994843 371.500000,146.000000 
z"/>
<path fill="rgb(24, 69, 59)" opacity="1.000000" stroke="none" 
	d="
M513.000000,63.531342 
	C512.333557,63.521629 511.283325,63.180237 511.056641,62.544933 
	C504.702606,44.740398 487.825653,32.856323 468.006409,32.890633 
	C343.251770,33.106613 218.496552,32.954369 93.741608,33.042915 
	C71.805336,33.058487 51.873474,53.351582 51.953648,74.713264 
	C52.111176,116.686317 52.000000,158.660385 52.000000,200.634033 
	C52.000000,202.269150 52.000000,203.904251 52.000000,205.058548 
	C44.897915,206.076813 37.970749,206.310471 31.501785,208.152924 
	C17.299347,212.197968 8.094088,221.950012 2.968425,235.687531 
	C2.706955,236.388290 2.090509,236.956619 1.319670,237.293304 
	C1.000000,158.375763 1.000000,79.751526 1.000000,1.063645 
	C171.666656,1.063645 342.333313,1.063645 513.000000,1.063645 
	C513.000000,21.751753 513.000000,42.407219 513.000000,63.531342 
z"/>
<path fill="rgb(24, 69, 59)" opacity="1.000000" stroke="none" 
	d="
M0.999997,450.468658 
	C1.655840,450.312561 2.737326,450.477264 2.904848,450.959473 
	C6.450040,461.164307 12.814125,468.928497 22.030109,474.667175 
	C28.251997,478.541443 34.942902,480.894531 42.037331,480.902100 
	C168.343735,481.037018 294.650726,481.148529 420.956482,480.830688 
	C438.735168,480.785950 456.343750,467.381927 460.945526,447.202576 
	C461.662994,444.056183 461.951050,440.747375 461.956635,437.512878 
	C462.023712,398.687866 462.000000,359.862732 462.000000,321.037628 
	C462.000000,319.223633 462.000000,317.409637 462.000000,315.886414 
	C469.111542,314.780548 476.261292,314.588684 482.779022,312.460907 
	C495.760590,308.222870 505.489502,299.903076 510.177277,286.539185 
	C510.582336,285.384399 511.623169,284.452576 512.684326,283.708588 
	C513.000000,360.291779 513.000000,436.583527 513.000000,512.937622 
	C342.333344,512.937622 171.666672,512.937622 1.000000,512.937622 
	C1.000000,492.248260 1.000000,471.592804 0.999997,450.468658 
z"/>
<path fill="#FFFFFF" opacity="1.000000" stroke="none" 
	d="
M129.000000,286.000000 
	C234.795685,286.000000 340.091370,286.000000 445.754486,286.000000 
	C445.842041,287.586670 445.989716,289.018005 445.990051,290.449432 
	C446.002045,338.773254 446.035706,387.097137 445.978546,435.420898 
	C445.961090,450.170502 434.909027,462.976746 420.914764,463.998260 
	C416.006561,464.356567 411.094971,464.955566 406.184723,464.957794 
	C287.208160,465.011841 168.231567,465.017395 49.254978,464.973206 
	C37.327927,464.968750 27.075701,461.003845 20.924080,450.183807 
	C18.782242,446.416565 17.186098,441.733337 17.164179,437.459045 
	C16.908709,387.636810 17.001427,337.812836 17.009449,287.989288 
	C17.009525,287.510956 17.109896,287.032623 17.225491,286.000000 
	C54.319298,286.000000 91.409653,286.000000 129.000000,286.000000 
M340.500610,422.000000 
	C358.314117,422.000000 376.127655,422.012177 393.941162,421.993378 
	C400.138580,421.986816 402.985504,419.206268 402.991272,413.110504 
	C403.013000,390.136047 403.008026,367.161591 402.994873,344.187134 
	C402.991211,337.774078 400.198853,335.007721 393.739349,335.004456 
	C370.931366,334.993011 348.123413,334.993439 325.315430,335.004120 
	C318.822113,335.007172 316.049164,337.596161 316.028595,344.145508 
	C315.955383,367.452698 315.966339,390.760345 316.027374,414.067627 
	C316.040161,418.944458 319.104462,421.892212 324.018616,421.979462 
	C329.177917,422.071075 334.340118,422.000000 340.500610,422.000000 
M95.500000,346.000000 
	C83.683311,346.000031 71.866455,345.965454 60.050014,346.019379 
	C56.082890,346.037476 52.915249,347.801208 52.086182,351.800049 
	C50.905304,357.495758 52.613758,361.121185 57.673630,361.827728 
	C64.964828,362.845886 72.422440,362.937866 79.810143,362.955078 
	C120.252953,363.049377 160.696472,363.074432 201.138489,362.872711 
	C204.759232,362.854675 208.880615,361.816040 211.842499,359.852844 
	C214.758469,357.920074 214.819672,354.125946 213.185471,350.572296 
	C211.568909,347.057007 208.915436,345.982239 205.346664,345.984711 
	C169.064453,346.009735 132.782227,346.000000 95.500000,346.000000 
M202.334534,411.000000 
	C203.000656,411.000000 203.666779,411.001740 204.332901,410.999695 
	C210.860535,410.979553 213.927353,408.350616 213.999985,402.713593 
	C214.067932,397.440186 211.063309,395.000275 204.496613,395.000183 
	C175.019745,394.999756 145.542892,395.000000 116.066025,395.000000 
	C97.414001,395.000000 78.761909,395.024567 60.110001,394.976990 
	C56.819706,394.968597 53.949558,395.368317 52.533962,398.923950 
	C50.189716,404.812164 53.855816,411.220978 60.487453,411.174622 
	C107.448296,410.846375 154.412506,411.000000 202.334534,411.000000 
z"/>
<path fill="#FFFFFF" opacity="1.000000" stroke="none" 
	d="
M375.000000,163.000000 
	C415.804626,163.000000 456.109283,163.000000 497.000000,163.000000 
	C497.000000,164.960556 497.000000,166.723724 497.000000,168.486893 
	C497.000000,202.146759 496.890381,235.807144 497.051361,269.466248 
	C497.120453,283.901825 484.621338,298.854706 468.373535,298.013824 
	C466.412781,297.912354 464.442261,298.000000 462.000000,298.000000 
	C462.000000,282.257233 462.275757,266.808594 461.862335,251.378418 
	C461.700256,245.327423 460.917480,238.971970 458.814117,233.355606 
	C453.006622,217.848267 437.739685,206.098709 420.383423,206.076523 
	C304.906952,205.928909 189.430206,206.000000 73.953545,206.000000 
	C72.147202,206.000000 70.340858,206.000000 68.268524,206.000000 
	C68.268524,191.676712 68.268524,177.606354 68.268524,163.000000 
	C170.338852,163.000000 272.419434,163.000000 375.000000,163.000000 
z"/>
<path fill="rgb(24, 69, 59)" opacity="1.000000" stroke="none" 
	d="
M108.000000,222.000000 
	C210.823318,222.000000 313.146698,221.949829 415.469879,222.048462 
	C432.912292,222.065262 445.942413,234.339706 445.997437,252.257538 
	C446.014191,257.712250 446.000000,263.167053 446.000000,268.805908 
	C302.866150,268.805908 160.137573,268.805908 16.550341,268.805908 
	C17.041073,260.574768 17.138227,252.523911 18.083420,244.573883 
	C19.556149,232.186737 33.179527,222.086441 46.006233,222.025879 
	C66.503738,221.929108 87.002037,222.000000 108.000000,222.000000 
z"/>
<path fill="#FFFFFF" opacity="1.000000" stroke="none" 
	d="
M195.000000,49.000000 
	C285.833313,49.000000 376.166779,49.087227 466.499817,48.924973 
	C484.155365,48.893257 497.881378,63.168995 497.038940,79.703644 
	C496.786896,84.651054 497.000000,89.622169 497.000000,94.786743 
	C353.894684,94.786743 211.156250,94.786743 67.560677,94.786743 
	C68.047150,86.916687 68.187981,79.206421 69.071609,71.582237 
	C70.492897,59.319080 84.305069,48.977448 97.500061,48.989975 
	C129.833359,49.020668 162.166687,49.000000 195.000000,49.000000 
z"/>
<path fill="rgb(24, 69, 59)" opacity="1.000000" stroke="none" 
	d="
M371.000000,146.000000 
	C270.172180,145.994843 169.844360,145.989868 69.516548,145.976837 
	C69.203903,145.976791 68.891281,145.859512 68.290314,145.739334 
	C68.290314,134.387253 68.290314,122.981293 68.290314,111.286552 
	C210.953018,111.286552 353.686127,111.286552 496.709717,111.286552 
	C496.709717,122.612770 496.709717,134.018723 496.709717,146.000000 
	C455.021454,146.000000 413.260712,146.000000 371.000000,146.000000 
z"/>
<path fill="#FFFFFF" opacity="1.000000" stroke="none" 
	d="
M340.000824,422.000000 
	C334.340118,422.000000 329.177917,422.071075 324.018616,421.979462 
	C319.104462,421.892212 316.040161,418.944458 316.027374,414.067627 
	C315.966339,390.760345 315.955383,367.452698 316.028595,344.145508 
	C316.049164,337.596161 318.822113,335.007172 325.315430,335.004120 
	C348.123413,334.993439 370.931366,334.993011 393.739349,335.004456 
	C400.198853,335.007721 402.991211,337.774078 402.994873,344.187134 
	C403.008026,367.161591 403.013000,390.136047 402.991272,413.110504 
	C402.985504,419.206268 400.138580,421.986816 393.941162,421.993378 
	C376.127655,422.012177 358.314117,422.000000 340.000824,422.000000 
M370.498230,352.000000 
	C358.069336,352.000000 345.640442,352.000000 333.286682,352.000000 
	C333.286682,370.310944 333.286682,388.047333 333.286682,405.713196 
	C351.311157,405.713196 369.047577,405.713196 386.713074,405.713196 
	C386.713074,387.688599 386.713074,369.952209 386.713074,352.000000 
	C381.450836,352.000000 376.473755,352.000000 370.498230,352.000000 
z"/>
<path fill="rgb(24, 69, 59)" opacity="1.000000" stroke="none" 
	d="
M96.000000,346.000000 
	C132.782227,346.000000 169.064453,346.009735 205.346664,345.984711 
	C208.915436,345.982239 211.568909,347.057007 213.185471,350.572296 
	C214.819672,354.125946 214.758469,357.920074 211.842499,359.852844 
	C208.880615,361.816040 204.759232,362.854675 201.138489,362.872711 
	C160.696472,363.074432 120.252953,363.049377 79.810143,362.955078 
	C72.422440,362.937866 64.964828,362.845886 57.673630,361.827728 
	C52.613758,361.121185 50.905304,357.495758 52.086182,351.800049 
	C52.915249,347.801208 56.082890,346.037476 60.050014,346.019379 
	C71.866455,345.965454 83.683311,346.000031 96.000000,346.000000 
z"/>
<path fill="#FFFFFF" opacity="1.000000" stroke="none" 
	d="
M201.855087,411.000000 
	C154.412506,411.000000 107.448296,410.846375 60.487453,411.174622 
	C53.855816,411.220978 50.189716,404.812164 52.533962,398.923950 
	C53.949558,395.368317 56.819706,394.968597 60.110001,394.976990 
	C78.761909,395.024567 97.414001,395.000000 116.066025,395.000000 
	C145.542892,395.000000 175.019745,394.999756 204.496613,395.000183 
	C211.063309,395.000275 214.067932,397.440186 213.999985,402.713593 
	C213.927353,408.350616 210.860535,410.979553 204.332901,410.999695 
	C203.666779,411.001740 203.000656,411.000000 201.855087,411.000000 
z"/>
<path fill="rgb(24, 69, 59)" opacity="1.000000" stroke="none" 
	d="
M370.997467,352.000000 
	C376.473755,352.000000 381.450836,352.000000 386.713074,352.000000 
	C386.713074,369.952209 386.713074,387.688599 386.713074,405.713196 
	C369.047577,405.713196 351.311157,405.713196 333.286682,405.713196 
	C333.286682,388.047333 333.286682,370.310944 333.286682,352.000000 
	C345.640442,352.000000 358.069336,352.000000 370.997467,352.000000 
z"/>
</svg>