<svg version="1.1" id="Layer_1" xmlns="http://www.w3.org/2000/svg" xmlns:xlink="http://www.w3.org/1999/xlink" x="0px" y="0px"
	width="24" height="24" viewBox="0 0 512 512" enable-background="new 0 0 512 512" xml:space="preserve">
<path fill="rgb(24, 69, 59)" opacity="1.000000" stroke="none" 
	d="
M500.000000,513.000000 
	C333.764618,513.000000 167.529236,513.000000 1.000000,513.000000 
	C1.000000,431.979340 1.000000,350.958344 1.292045,269.756592 
	C2.383057,268.770966 3.341399,268.072113 3.957836,267.145782 
	C22.168144,239.780731 40.384926,212.419662 58.448051,184.957581 
	C59.866131,182.801620 60.855972,179.925232 60.889462,177.368546 
	C61.105495,160.874741 61.000000,144.376709 61.000000,127.880074 
	C61.000000,126.294319 61.000000,124.708572 61.000000,123.320755 
	C129.391449,123.320755 197.120544,123.320755 265.000000,123.320755 
	C265.000000,142.124435 264.918610,160.608322 265.046509,179.090759 
	C265.088318,185.130264 268.846771,189.555084 272.212250,194.898178 
	C280.348694,168.485062 299.195251,146.802078 323.424622,136.093231 
	C327.345795,134.360153 328.085968,132.284576 328.075287,128.473801 
	C327.955963,85.982796 328.000000,43.491337 328.000000,1.000000 
	C353.020905,1.000000 378.041779,1.000000 403.531342,1.468657 
	C404.000000,45.870571 404.000000,89.803833 404.000000,133.540527 
	C418.374542,140.293152 431.183685,148.340118 441.309937,160.609238 
	C456.011932,178.422424 463.836670,198.514954 463.974060,221.553818 
	C464.097229,242.200760 463.995453,262.848999 464.009766,283.496674 
	C464.010742,284.931763 464.151978,286.366821 464.238434,288.000000 
	C469.877380,288.000000 475.217957,288.383270 480.482697,287.914703 
	C489.522156,287.110168 500.569214,293.245911 501.702179,303.928802 
	C503.062866,316.758575 502.023804,329.842865 502.023804,343.164368 
	C497.621552,343.164368 492.852570,343.164368 488.308075,343.164368 
	C487.156555,347.437195 488.865234,349.636353 492.188477,351.891510 
	C501.562714,358.252930 508.434998,366.672638 511.105499,378.035004 
	C511.210175,378.480469 512.345093,378.683838 513.000000,379.000000 
	C513.000000,418.687561 513.000000,458.375122 512.695557,498.241638 
	C509.151886,503.798981 505.821472,509.089233 499.808380,511.890747 
	C499.719299,511.932220 499.929474,512.616028 500.000000,513.000000 
M187.458221,498.000000 
	C190.231262,498.000000 193.004303,498.000000 195.725616,498.000000 
	C195.725616,426.049103 195.725616,354.646545 195.725616,283.275452 
	C135.714462,283.275452 75.978088,283.275452 16.275837,283.275452 
	C16.275837,354.953796 16.275837,426.356384 16.275837,498.000000 
	C73.189667,498.000000 129.828003,498.000000 187.458221,498.000000 
M313.000000,374.500000 
	C313.000000,415.591949 313.000000,456.683868 313.000000,497.770996 
	C325.008362,497.770996 336.448578,497.770996 347.000000,497.770996 
	C347.000000,492.947113 347.000000,488.384705 347.000000,483.822327 
	C347.000000,466.157806 346.870728,448.492035 347.038544,430.829102 
	C347.188171,415.083740 346.942749,399.283234 348.204559,383.614380 
	C349.447296,368.182648 358.508087,357.187500 371.783386,349.382080 
	C371.783386,347.504303 371.783386,345.406708 371.783386,342.928436 
	C366.823120,342.928436 362.064331,342.928436 357.000885,342.928436 
	C357.000885,331.075317 356.342773,319.563965 357.190063,308.164490 
	C358.001221,297.251373 367.031250,287.818726 379.092957,287.939453 
	C400.588196,288.154663 422.087128,288.004547 443.584534,287.989838 
	C445.013214,287.988861 446.441772,287.841919 448.000000,287.755737 
	C448.000000,270.211945 448.103790,253.059937 447.955017,235.910141 
	C447.883484,227.663025 447.747070,219.378342 446.917236,211.183884 
	C445.174469,193.975021 437.151611,179.532059 425.519073,167.150513 
	C416.170074,157.199478 404.449921,150.594086 391.537109,146.373215 
	C388.378296,145.340683 387.948853,143.904739 387.959473,141.153625 
	C388.035370,121.489624 388.000000,101.825203 388.000000,82.160912 
	C388.000000,79.880875 388.000000,77.600838 388.000000,75.234329 
	C373.131409,75.234329 358.727386,75.234329 344.086609,75.234329 
	C344.086609,98.753029 344.086609,122.039574 344.086609,144.925308 
	C337.647308,147.769455 331.299622,149.994064 325.517487,153.229370 
	C303.034119,165.809555 289.896942,185.228714 285.098114,210.361557 
	C284.491943,213.536240 283.882477,217.511673 285.216461,220.124710 
	C293.548584,236.445541 302.494812,252.451736 311.061096,268.655457 
	C312.215424,270.838989 312.910278,273.544800 312.919464,276.012115 
	C313.040375,308.507721 313.000000,341.003937 313.000000,374.500000 
M212.000000,368.500000 
	C212.000000,411.578339 212.000000,454.656708 212.000000,497.749390 
	C240.921127,497.749390 269.315094,497.749390 297.653290,497.749390 
	C297.807709,497.200714 297.967316,496.898407 297.967377,496.596069 
	C297.985596,424.470245 297.995331,352.344391 297.974640,280.218567 
	C297.974304,279.124176 297.850220,277.893097 297.351624,276.955811 
	C287.766693,258.937805 278.133240,240.945557 268.472321,222.968140 
	C264.851227,216.229874 261.135345,209.542557 257.002197,201.990631 
	C253.835861,207.192902 251.065598,211.633255 248.403748,216.137695 
	C238.840118,232.321426 229.465347,248.619232 219.708023,264.684937 
	C214.830475,272.716003 211.421341,280.530518 211.733658,290.551666 
	C212.532394,316.178986 212.000000,341.847778 212.000000,368.500000 
M191.416870,267.000000 
	C196.525223,267.582245 200.195084,266.679535 203.159561,261.319611 
	C211.862778,245.583847 221.448730,230.337982 230.594452,214.844467 
	C234.791428,207.734451 238.767395,200.493988 243.021057,193.000015 
	C187.088730,193.000015 131.805893,192.965591 76.523735,193.146118 
	C74.629509,193.152283 72.094223,194.869949 70.951767,196.538803 
	C59.119732,213.822617 47.498138,231.250717 35.851357,248.660995 
	C31.870535,254.611755 27.983503,260.625244 23.797583,267.000000 
	C79.870949,267.000000 135.153793,267.000000 191.416870,267.000000 
M488.458252,468.000000 
	C491.231232,468.000000 494.004181,468.000000 496.724121,468.000000 
	C496.724121,446.047058 496.724121,424.643066 496.724121,403.275330 
	C452.045654,403.275330 407.643616,403.275330 363.277313,403.275330 
	C363.277313,424.955811 363.277313,446.359802 363.277313,468.000000 
	C404.858246,468.000000 446.162292,468.000000 488.458252,468.000000 
M137.500000,177.000000 
	C174.592651,177.000000 211.685318,177.000000 248.712875,177.000000 
	C248.712875,164.024200 248.712875,151.619049 248.712875,139.284271 
	C191.024811,139.284271 133.624329,139.284271 76.287094,139.284271 
	C76.287094,151.975739 76.287094,164.380890 76.287094,177.000000 
	C96.548927,177.000000 116.524467,177.000000 137.500000,177.000000 
M414.500000,343.000000 
	C405.735596,343.000000 396.971222,343.000000 387.999969,343.000000 
	C387.999969,347.882721 388.317719,352.228424 387.851044,356.488129 
	C387.650879,358.314880 386.197571,360.508087 384.651550,361.579132 
	C381.398865,363.832581 377.275452,364.938629 374.290039,367.445251 
	C368.395386,372.394714 364.996002,378.941925 363.825378,386.910828 
	C408.595703,386.910828 452.571747,386.910828 496.544159,386.910828 
	C494.646912,373.817200 486.534241,366.023499 475.018280,360.914154 
	C473.693787,360.326538 472.249146,358.396881 472.136505,356.987457 
	C471.771271,352.416504 472.000061,347.798065 472.000061,343.000000 
	C452.782593,343.000000 434.141296,343.000000 414.500000,343.000000 
M373.000000,311.969360 
	C373.000000,317.238464 373.000000,322.507568 373.000000,327.724182 
	C411.290131,327.724182 449.025055,327.724182 487.000000,327.724182 
	C487.000000,322.809204 486.785187,318.155670 487.048645,313.529388 
	C487.480896,305.939331 485.300842,303.314087 476.949097,303.188538 
	C445.627380,302.717743 414.294250,302.967133 382.965576,303.030487 
	C377.357635,303.041809 374.745697,305.343353 373.000000,311.969360 
M371.498230,16.000000 
	C362.401520,16.000000 353.304810,16.000000 344.286987,16.000000 
	C344.286987,30.978722 344.286987,45.381958 344.286987,59.712902 
	C358.978943,59.712902 373.382172,59.712902 387.712769,59.712902 
	C387.712769,45.020840 387.712769,30.617605 387.712769,16.000000 
	C382.450439,16.000000 377.473572,16.000000 371.498230,16.000000 
M493.469666,496.061920 
	C499.196686,493.233276 496.319366,488.342957 496.905121,484.246826 
	C451.956360,484.246826 407.587738,484.246826 363.274139,484.246826 
	C361.398285,492.864441 365.625946,498.180511 375.932037,498.103058 
	C411.540710,497.835571 447.152679,498.036072 482.763092,497.941254 
	C486.134644,497.932281 489.504028,497.101929 493.469666,496.061920 
z"/>
<path fill="#FFFFFF" opacity="1.000000" stroke="none" 
	d="
M327.531342,1.000000 
	C328.000000,43.491337 327.955963,85.982796 328.075287,128.473801 
	C328.085968,132.284576 327.345795,134.360153 323.424622,136.093231 
	C299.195251,146.802078 280.348694,168.485062 272.212250,194.898178 
	C268.846771,189.555084 265.088318,185.130264 265.046509,179.090759 
	C264.918610,160.608322 265.000000,142.124435 265.000000,123.320755 
	C197.120544,123.320755 129.391449,123.320755 61.000000,123.320755 
	C61.000000,124.708572 61.000000,126.294319 61.000000,127.880074 
	C61.000000,144.376709 61.105495,160.874741 60.889462,177.368546 
	C60.855972,179.925232 59.866131,182.801620 58.448051,184.957581 
	C40.384926,212.419662 22.168144,239.780731 3.957836,267.145782 
	C3.341399,268.072113 2.383057,268.770966 1.292045,269.287903 
	C1.000000,179.732376 1.000000,90.464745 1.000000,1.000000 
	C109.687485,1.000000 218.375076,1.000000 327.531342,1.000000 
z"/>
<path fill="#FFFFFF" opacity="1.000000" stroke="none" 
	d="
M513.000000,378.531342 
	C512.345093,378.683838 511.210175,378.480469 511.105499,378.035004 
	C508.434998,366.672638 501.562714,358.252930 492.188477,351.891510 
	C488.865234,349.636353 487.156555,347.437195 488.308075,343.164368 
	C492.852570,343.164368 497.621552,343.164368 502.023804,343.164368 
	C502.023804,329.842865 503.062866,316.758575 501.702179,303.928802 
	C500.569214,293.245911 489.522156,287.110168 480.482697,287.914703 
	C475.217957,288.383270 469.877380,288.000000 464.238434,288.000000 
	C464.151978,286.366821 464.010742,284.931763 464.009766,283.496674 
	C463.995453,262.848999 464.097229,242.200760 463.974060,221.553818 
	C463.836670,198.514954 456.011932,178.422424 441.309937,160.609238 
	C431.183685,148.340118 418.374542,140.293152 404.000000,133.540527 
	C404.000000,89.803833 404.000000,45.870571 404.000000,1.468657 
	C440.300690,1.000000 476.601349,1.000000 513.000000,1.000000 
	C513.000000,126.687546 513.000000,252.375107 513.000000,378.531342 
z"/>
<path fill="#FFFFFF" opacity="1.000000" stroke="none" 
	d="
M500.476654,513.000000 
	C499.929474,512.616028 499.719299,511.932220 499.808380,511.890747 
	C505.821472,509.089233 509.151886,503.798981 512.695557,498.710327 
	C513.000000,503.586823 513.000000,508.173676 513.000000,513.000000 
	C508.986389,513.000000 504.969849,513.000000 500.476654,513.000000 
z"/>
<path fill="#FFFFFF" opacity="1.000000" stroke="none" 
	d="
M186.962280,498.000000 
	C129.828003,498.000000 73.189667,498.000000 16.275837,498.000000 
	C16.275837,426.356384 16.275837,354.953796 16.275837,283.275452 
	C75.978088,283.275452 135.714462,283.275452 195.725616,283.275452 
	C195.725616,354.646545 195.725616,426.049103 195.725616,498.000000 
	C193.004303,498.000000 190.231262,498.000000 186.962280,498.000000 
M52.681652,414.999756 
	C87.759727,414.999756 122.837799,414.999756 157.644623,414.999756 
	C157.644623,409.549835 157.644623,404.805328 157.644623,400.356689 
	C121.549934,400.356689 85.811104,400.356689 50.000248,400.356689 
	C50.000248,404.543823 49.888683,408.380005 50.078640,412.201172 
	C50.126183,413.157562 51.143650,414.065735 52.681652,414.999756 
M50.000000,372.403809 
	C50.000000,373.843536 50.000000,375.283264 50.000000,376.744019 
	C83.580475,376.744019 116.651016,376.744019 149.740173,376.744019 
	C149.740173,371.744507 149.740173,367.005280 149.740173,362.261169 
	C116.408867,362.261169 83.338081,362.261169 50.000000,362.261169 
	C50.000000,365.488495 50.000000,368.461212 50.000000,372.403809 
M113.941780,452.272766 
	C113.941780,447.524475 113.941780,442.776154 113.941780,438.194153 
	C92.308464,438.194153 71.355431,438.194153 50.202206,438.194153 
	C50.202206,443.126038 50.202206,447.864014 50.202206,452.944489 
	C71.344711,452.944489 92.296707,452.944489 113.941780,452.272766 
z"/>
<path fill="#FFFFFF" opacity="1.000000" stroke="none" 
	d="
M313.000000,374.000000 
	C313.000000,341.003937 313.040375,308.507721 312.919464,276.012115 
	C312.910278,273.544800 312.215424,270.838989 311.061096,268.655457 
	C302.494812,252.451736 293.548584,236.445541 285.216461,220.124710 
	C283.882477,217.511673 284.491943,213.536240 285.098114,210.361557 
	C289.896942,185.228714 303.034119,165.809555 325.517487,153.229370 
	C331.299622,149.994064 337.647308,147.769455 344.086609,144.925308 
	C344.086609,122.039574 344.086609,98.753029 344.086609,75.234329 
	C358.727386,75.234329 373.131409,75.234329 388.000000,75.234329 
	C388.000000,77.600838 388.000000,79.880875 388.000000,82.160912 
	C388.000000,101.825203 388.035370,121.489624 387.959473,141.153625 
	C387.948853,143.904739 388.378296,145.340683 391.537109,146.373215 
	C404.449921,150.594086 416.170074,157.199478 425.519073,167.150513 
	C437.151611,179.532059 445.174469,193.975021 446.917236,211.183884 
	C447.747070,219.378342 447.883484,227.663025 447.955017,235.910141 
	C448.103790,253.059937 448.000000,270.211945 448.000000,287.755737 
	C446.441772,287.841919 445.013214,287.988861 443.584534,287.989838 
	C422.087128,288.004547 400.588196,288.154663 379.092957,287.939453 
	C367.031250,287.818726 358.001221,297.251373 357.190063,308.164490 
	C356.342773,319.563965 357.000885,331.075317 357.000885,342.928436 
	C362.064331,342.928436 366.823120,342.928436 371.783386,342.928436 
	C371.783386,345.406708 371.783386,347.504303 371.783386,349.382080 
	C358.508087,357.187500 349.447296,368.182648 348.204559,383.614380 
	C346.942749,399.283234 347.188171,415.083740 347.038544,430.829102 
	C346.870728,448.492035 347.000000,466.157806 347.000000,483.822327 
	C347.000000,488.384705 347.000000,492.947113 347.000000,497.770996 
	C336.448578,497.770996 325.008362,497.770996 313.000000,497.770996 
	C313.000000,456.683868 313.000000,415.591949 313.000000,374.000000 
M409.953430,171.428391 
	C403.230774,167.449402 396.508118,163.470413 389.193604,159.141113 
	C387.169434,165.134750 385.450165,170.225525 383.633209,175.605621 
	C393.256744,178.423584 400.328125,184.281097 406.679016,191.168747 
	C408.766876,193.433060 410.808044,197.505798 412.928040,197.543793 
	C415.805206,197.595352 418.739929,194.566895 421.643829,192.849167 
	C422.063446,192.600952 422.415039,192.214767 422.855652,192.028748 
	C425.717072,190.820694 425.553101,189.239899 423.684052,187.141800 
	C419.218048,182.128555 414.849823,177.028183 409.953430,171.428391 
M433.995483,221.357040 
	C433.435059,215.911575 432.874634,210.466125 432.303009,204.911636 
	C426.467316,206.520676 421.403290,207.916946 416.623993,209.234711 
	C417.228577,213.774673 417.815887,218.184860 418.492035,223.262375 
	C423.567688,222.948273 428.752686,222.627380 433.995483,221.357040 
z"/>
<path fill="#FFFFFF" opacity="1.000000" stroke="none" 
	d="
M212.000000,368.000000 
	C212.000000,341.847778 212.532394,316.178986 211.733658,290.551666 
	C211.421341,280.530518 214.830475,272.716003 219.708023,264.684937 
	C229.465347,248.619232 238.840118,232.321426 248.403748,216.137695 
	C251.065598,211.633255 253.835861,207.192902 257.002197,201.990631 
	C261.135345,209.542557 264.851227,216.229874 268.472321,222.968140 
	C278.133240,240.945557 287.766693,258.937805 297.351624,276.955811 
	C297.850220,277.893097 297.974304,279.124176 297.974640,280.218567 
	C297.995331,352.344391 297.985596,424.470245 297.967377,496.596069 
	C297.967316,496.898407 297.807709,497.200714 297.653290,497.749390 
	C269.315094,497.749390 240.921127,497.749390 212.000000,497.749390 
	C212.000000,454.656708 212.000000,411.578339 212.000000,368.000000 
z"/>
<path fill="#FFFFFF" opacity="1.000000" stroke="none" 
	d="
M190.926758,267.000000 
	C135.153793,267.000000 79.870949,267.000000 23.797583,267.000000 
	C27.983503,260.625244 31.870535,254.611755 35.851357,248.660995 
	C47.498138,231.250717 59.119732,213.822617 70.951767,196.538803 
	C72.094223,194.869949 74.629509,193.152283 76.523735,193.146118 
	C131.805893,192.965591 187.088730,193.000015 243.021057,193.000015 
	C238.767395,200.493988 234.791428,207.734451 230.594452,214.844467 
	C221.448730,230.337982 211.862778,245.583847 203.159561,261.319611 
	C200.195084,266.679535 196.525223,267.582245 190.926758,267.000000 
M108.476913,207.000000 
	C105.650833,207.000000 102.824692,206.988571 99.998672,207.002304 
	C93.518204,207.033783 85.978027,205.036469 80.857834,207.695007 
	C75.819229,210.311188 73.158432,217.603088 69.593994,222.936722 
	C65.539070,229.004333 61.638908,235.175354 57.629883,241.365646 
	C61.377346,243.915466 64.678368,245.941025 67.719765,248.301163 
	C70.123909,250.166824 71.498833,249.544113 73.007874,247.234680 
	C77.490730,240.374207 82.372581,233.758255 86.545609,226.718964 
	C88.374016,223.634720 90.396935,222.878662 93.638130,222.943573 
	C102.039688,223.111786 110.446846,223.000000 118.695358,223.000000 
	C118.695358,217.302353 118.695358,212.239044 118.695358,207.000000 
	C115.416832,207.000000 112.441597,207.000000 108.476913,207.000000 
M136.641144,207.000000 
	C135.027328,207.174438 132.822739,206.144165 132.955643,209.371216 
	C133.138397,213.809357 133.001389,218.260681 133.001389,222.755463 
	C138.558258,222.755463 143.630478,222.755463 148.752319,222.755463 
	C148.752319,217.435165 148.752319,212.362839 148.752319,207.000000 
	C144.874100,207.000000 141.239914,207.000000 136.641144,207.000000 
z"/>
<path fill="#FFFFFF" opacity="1.000000" stroke="none" 
	d="
M487.962311,468.000000 
	C446.162292,468.000000 404.858246,468.000000 363.277313,468.000000 
	C363.277313,446.359802 363.277313,424.955811 363.277313,403.275330 
	C407.643616,403.275330 452.045654,403.275330 496.724121,403.275330 
	C496.724121,424.643066 496.724121,446.047058 496.724121,468.000000 
	C494.004181,468.000000 491.231232,468.000000 487.962311,468.000000 
M457.744415,427.057159 
	C457.399109,432.234222 457.053772,437.411255 456.694885,442.791870 
	C462.482483,442.791870 467.553864,442.791870 472.788879,442.791870 
	C472.788879,437.511292 472.788879,432.439880 472.788879,427.003937 
	C467.961670,427.003937 463.335907,427.003937 457.744415,427.057159 
M429.670258,427.000336 
	C428.780670,427.780151 427.169556,428.518433 427.121887,429.346710 
	C426.866669,433.780029 427.001495,438.235779 427.001495,442.766968 
	C432.535065,442.766968 437.606537,442.766968 442.764343,442.766968 
	C442.764343,437.459473 442.764343,432.387909 442.764343,427.000000 
	C438.571381,427.000000 434.606262,427.000000 429.670258,427.000336 
M413.000000,436.456940 
	C413.000000,433.356964 413.000000,430.256989 413.000000,427.305939 
	C407.316986,427.305939 402.244141,427.305939 397.308929,427.305939 
	C397.308929,432.689056 397.308929,437.762054 397.308929,442.687622 
	C402.694611,442.687622 407.767151,442.687622 413.000000,442.687622 
	C413.000000,440.725189 413.000000,439.074219 413.000000,436.456940 
z"/>
<path fill="#FFFFFF" opacity="1.000000" stroke="none" 
	d="
M137.000000,177.000000 
	C116.524467,177.000000 96.548927,177.000000 76.287094,177.000000 
	C76.287094,164.380890 76.287094,151.975739 76.287094,139.284271 
	C133.624329,139.284271 191.024811,139.284271 248.712875,139.284271 
	C248.712875,151.619049 248.712875,164.024200 248.712875,177.000000 
	C211.685318,177.000000 174.592651,177.000000 137.000000,177.000000 
z"/>
<path fill="#FFFFFF" opacity="1.000000" stroke="none" 
	d="
M415.000000,343.000000 
	C434.141296,343.000000 452.782593,343.000000 472.000061,343.000000 
	C472.000061,347.798065 471.771271,352.416504 472.136505,356.987457 
	C472.249146,358.396881 473.693787,360.326538 475.018280,360.914154 
	C486.534241,366.023499 494.646912,373.817200 496.544159,386.910828 
	C452.571747,386.910828 408.595703,386.910828 363.825378,386.910828 
	C364.996002,378.941925 368.395386,372.394714 374.290039,367.445251 
	C377.275452,364.938629 381.398865,363.832581 384.651550,361.579132 
	C386.197571,360.508087 387.650879,358.314880 387.851044,356.488129 
	C388.317719,352.228424 387.999969,347.882721 387.999969,343.000000 
	C396.971222,343.000000 405.735596,343.000000 415.000000,343.000000 
z"/>
<path fill="#FFFFFF" opacity="1.000000" stroke="none" 
	d="
M373.000305,311.523987 
	C374.745697,305.343353 377.357635,303.041809 382.965576,303.030487 
	C414.294250,302.967133 445.627380,302.717743 476.949097,303.188538 
	C485.300842,303.314087 487.480896,305.939331 487.048645,313.529388 
	C486.785187,318.155670 487.000000,322.809204 487.000000,327.724182 
	C449.025055,327.724182 411.290131,327.724182 373.000000,327.724182 
	C373.000000,322.507568 373.000000,317.238464 373.000305,311.523987 
z"/>
<path fill="#FFFFFF" opacity="1.000000" stroke="none" 
	d="
M371.997467,16.000000 
	C377.473572,16.000000 382.450439,16.000000 387.712769,16.000000 
	C387.712769,30.617605 387.712769,45.020840 387.712769,59.712902 
	C373.382172,59.712902 358.978943,59.712902 344.286987,59.712902 
	C344.286987,45.381958 344.286987,30.978722 344.286987,16.000000 
	C353.304810,16.000000 362.401520,16.000000 371.997467,16.000000 
z"/>
<path fill="#FFFFFF" opacity="1.000000" stroke="none" 
	d="
M493.172058,496.357422 
	C489.504028,497.101929 486.134644,497.932281 482.763092,497.941254 
	C447.152679,498.036072 411.540710,497.835571 375.932037,498.103058 
	C365.625946,498.180511 361.398285,492.864441 363.274139,484.246826 
	C407.587738,484.246826 451.956360,484.246826 496.905121,484.246826 
	C496.319366,488.342957 499.196686,493.233276 493.172058,496.357422 
z"/>
<path fill="#FFFFFF" opacity="1.000000" stroke="none" 
	d="
M52.198498,414.997925 
	C51.143650,414.065735 50.126183,413.157562 50.078640,412.201172 
	C49.888683,408.380005 50.000248,404.543823 50.000248,400.356689 
	C85.811104,400.356689 121.549934,400.356689 157.644623,400.356689 
	C157.644623,404.805328 157.644623,409.549835 157.644623,414.999756 
	C122.837799,414.999756 87.759727,414.999756 52.198498,414.997925 
z"/>
<path fill="#000000" opacity="1.000000" stroke="none" 
	d="
M50.000000,371.918884 
	C50.000000,368.461212 50.000000,365.488495 50.000000,362.261169 
	C83.338081,362.261169 116.408867,362.261169 149.740173,362.261169 
	C149.740173,367.005280 149.740173,371.744507 149.740173,376.744019 
	C116.651016,376.744019 83.580475,376.744019 50.000000,376.744019 
	C50.000000,375.283264 50.000000,373.843536 50.000000,371.918884 
z"/>
<path fill="#000000" opacity="1.000000" stroke="none" 
	d="
M113.595245,452.608643 
	C92.296707,452.944489 71.344711,452.944489 50.202206,452.944489 
	C50.202206,447.864014 50.202206,443.126038 50.202206,438.194153 
	C71.355431,438.194153 92.308464,438.194153 113.941780,438.194153 
	C113.941780,442.776154 113.941780,447.524475 113.595245,452.608643 
z"/>
<path fill="#000000" opacity="1.000000" stroke="none" 
	d="
M410.197784,171.695679 
	C414.849823,177.028183 419.218048,182.128555 423.684052,187.141800 
	C425.553101,189.239899 425.717072,190.820694 422.855652,192.028748 
	C422.415039,192.214767 422.063446,192.600952 421.643829,192.849167 
	C418.739929,194.566895 415.805206,197.595352 412.928040,197.543793 
	C410.808044,197.505798 408.766876,193.433060 406.679016,191.168747 
	C400.328125,184.281097 393.256744,178.423584 383.633209,175.605621 
	C385.450165,170.225525 387.169434,165.134750 389.193604,159.141113 
	C396.508118,163.470413 403.230774,167.449402 410.197784,171.695679 
z"/>
<path fill="#000000" opacity="1.000000" stroke="none" 
	d="
M433.966583,221.831772 
	C428.752686,222.627380 423.567688,222.948273 418.492035,223.262375 
	C417.815887,218.184860 417.228577,213.774673 416.623993,209.234711 
	C421.403290,207.916946 426.467316,206.520676 432.303009,204.911636 
	C432.874634,210.466125 433.435059,215.911575 433.966583,221.831772 
z"/>
<path fill="#000000" opacity="1.000000" stroke="none" 
	d="
M108.971634,207.000000 
	C112.441597,207.000000 115.416832,207.000000 118.695358,207.000000 
	C118.695358,212.239044 118.695358,217.302353 118.695358,223.000000 
	C110.446846,223.000000 102.039688,223.111786 93.638130,222.943573 
	C90.396935,222.878662 88.374016,223.634720 86.545609,226.718964 
	C82.372581,233.758255 77.490730,240.374207 73.007874,247.234680 
	C71.498833,249.544113 70.123909,250.166824 67.719765,248.301163 
	C64.678368,245.941025 61.377346,243.915466 57.629883,241.365646 
	C61.638908,235.175354 65.539070,229.004333 69.593994,222.936722 
	C73.158432,217.603088 75.819229,210.311188 80.857834,207.695007 
	C85.978027,205.036469 93.518204,207.033783 99.998672,207.002304 
	C102.824692,206.988571 105.650833,207.000000 108.971634,207.000000 
z"/>
<path fill="#000000" opacity="1.000000" stroke="none" 
	d="
M137.123444,207.000000 
	C141.239914,207.000000 144.874100,207.000000 148.752319,207.000000 
	C148.752319,212.362839 148.752319,217.435165 148.752319,222.755463 
	C143.630478,222.755463 138.558258,222.755463 133.001389,222.755463 
	C133.001389,218.260681 133.138397,213.809357 132.955643,209.371216 
	C132.822739,206.144165 135.027328,207.174438 137.123444,207.000000 
z"/>
<path fill="#000000" opacity="1.000000" stroke="none" 
	d="
M458.227295,427.030548 
	C463.335907,427.003937 467.961670,427.003937 472.788879,427.003937 
	C472.788879,432.439880 472.788879,437.511292 472.788879,442.791870 
	C467.553864,442.791870 462.482483,442.791870 456.694885,442.791870 
	C457.053772,437.411255 457.399109,432.234222 458.227295,427.030548 
z"/>
<path fill="#000000" opacity="1.000000" stroke="none" 
	d="
M430.155701,427.000183 
	C434.606262,427.000000 438.571381,427.000000 442.764343,427.000000 
	C442.764343,432.387909 442.764343,437.459473 442.764343,442.766968 
	C437.606537,442.766968 432.535065,442.766968 427.001495,442.766968 
	C427.001495,438.235779 426.866669,433.780029 427.121887,429.346710 
	C427.169556,428.518433 428.780670,427.780151 430.155701,427.000183 
z"/>
<path fill="#000000" opacity="1.000000" stroke="none" 
	d="
M413.000000,436.940125 
	C413.000000,439.074219 413.000000,440.725189 413.000000,442.687622 
	C407.767151,442.687622 402.694611,442.687622 397.308929,442.687622 
	C397.308929,437.762054 397.308929,432.689056 397.308929,427.305939 
	C402.244141,427.305939 407.316986,427.305939 413.000000,427.305939 
	C413.000000,430.256989 413.000000,433.356964 413.000000,436.940125 
z"/>
</svg>