<svg version="1.1" id="Layer_1" xmlns="http://www.w3.org/2000/svg" xmlns:xlink="http://www.w3.org/1999/xlink" x="0px" y="0px"
	 width="25" height="25" viewBox="0 0 512 512" enable-background="new 0 0 512 512" xml:space="preserve">
<path fill="rgb(24, 69, 59)" opacity="1.000000" stroke="none" 
	d="
M292.000000,513.000000 
	C194.690292,513.000000 97.880577,513.000000 1.035435,513.000000 
	C1.035435,342.398590 1.035435,171.797195 1.035435,1.097890 
	C171.559723,1.097890 342.119537,1.097890 512.839661,1.097890 
	C512.839661,171.666550 512.839661,342.333252 512.839661,513.000000 
	C439.463837,513.000000 365.981903,513.000000 292.000000,513.000000 
M214.500000,364.000000 
	C266.243378,364.333344 317.986450,364.749786 369.730377,364.931335 
	C380.353943,364.968628 390.481476,362.492981 399.866943,357.070190 
	C410.720184,350.799347 419.100494,342.037323 422.726440,330.299438 
	C426.320129,318.666107 427.845490,306.369843 429.947815,294.306824 
	C431.896851,283.123199 433.331360,271.850983 435.134613,260.640656 
	C437.346069,246.892960 439.666504,233.162430 442.012695,219.436935 
	C443.893555,208.433792 446.035492,197.473434 447.783875,186.450027 
	C449.743042,174.097198 450.660461,161.737076 443.748077,150.383438 
	C435.821594,137.364136 424.651611,129.087677 408.960205,129.062973 
	C324.473145,128.929871 239.985718,129.000015 155.498428,128.999954 
	C154.331940,128.999954 153.029312,129.326401 152.034668,128.912750 
	C150.884659,128.434479 149.283340,127.422760 149.121689,126.438408 
	C147.596207,117.148895 146.293182,107.821686 145.010986,98.493675 
	C143.548325,87.852669 139.320938,78.356796 132.573273,70.138725 
	C118.096527,52.507309 98.850624,47.010635 76.851730,49.029091 
	C76.097092,49.098328 75.365074,49.522652 74.643890,49.831421 
	C66.474258,53.329144 62.180080,62.345901 65.267975,70.645943 
	C67.272690,76.034454 71.126160,80.060387 77.183815,80.950012 
	C81.224876,81.543480 85.330154,81.854874 89.415337,81.961472 
	C98.858253,82.207863 109.529793,91.270126 110.948181,99.007751 
	C113.544189,113.169609 115.830139,127.393616 117.953552,141.635208 
	C119.848061,154.341492 121.208244,167.126923 123.057121,179.840652 
	C125.578262,197.177292 128.386810,214.471909 130.982605,231.797958 
	C133.051575,245.607498 134.993103,259.436157 136.979431,273.258026 
	C139.658524,291.900604 142.304504,310.548004 145.005051,329.187439 
	C147.786331,348.384094 165.885483,363.783936 185.004471,363.982849 
	C194.501999,364.081665 204.001434,364.000000 214.500000,364.000000 
M181.883530,424.020691 
	C171.801117,429.235199 166.271927,437.648956 166.133392,448.853668 
	C166.004532,459.276703 170.690079,468.030396 179.990005,472.825958 
	C190.339767,478.162933 200.776031,478.533600 212.408997,468.711792 
	C219.444519,462.771698 222.524750,452.257935 219.365540,440.764862 
	C215.419250,426.408417 197.769409,417.434967 181.883530,424.020691 
M353.632599,423.876801 
	C340.840179,428.842316 332.818115,444.011505 339.025818,459.789917 
	C343.260559,470.553558 356.361145,478.738525 371.086884,475.170502 
	C381.896851,472.551270 389.711670,463.124146 390.838348,454.203796 
	C392.572571,440.473175 388.222626,431.476562 376.860779,425.001160 
	C369.620117,420.874512 361.933777,421.436371 353.632599,423.876801 
z"/>
<path fill="#FFFFFF" opacity="1.000000" stroke="none" 
	d="
M214.000000,364.000000 
	C204.001434,364.000000 194.501999,364.081665 185.004471,363.982849 
	C165.885483,363.783936 147.786331,348.384094 145.005051,329.187439 
	C142.304504,310.548004 139.658524,291.900604 136.979431,273.258026 
	C134.993103,259.436157 133.051575,245.607498 130.982605,231.797958 
	C128.386810,214.471909 125.578262,197.177292 123.057121,179.840652 
	C121.208244,167.126923 119.848061,154.341492 117.953552,141.635208 
	C115.830139,127.393616 113.544189,113.169609 110.948181,99.007751 
	C109.529793,91.270126 98.858253,82.207863 89.415337,81.961472 
	C85.330154,81.854874 81.224876,81.543480 77.183815,80.950012 
	C71.126160,80.060387 67.272690,76.034454 65.267975,70.645943 
	C62.180080,62.345901 66.474258,53.329144 74.643890,49.831421 
	C75.365074,49.522652 76.097092,49.098328 76.851730,49.029091 
	C98.850624,47.010635 118.096527,52.507309 132.573273,70.138725 
	C139.320938,78.356796 143.548325,87.852669 145.010986,98.493675 
	C146.293182,107.821686 147.596207,117.148895 149.121689,126.438408 
	C149.283340,127.422760 150.884659,128.434479 152.034668,128.912750 
	C153.029312,129.326401 154.331940,128.999954 155.498428,128.999954 
	C239.985718,129.000015 324.473145,128.929871 408.960205,129.062973 
	C424.651611,129.087677 435.821594,137.364136 443.748077,150.383438 
	C450.660461,161.737076 449.743042,174.097198 447.783875,186.450027 
	C446.035492,197.473434 443.893555,208.433792 442.012695,219.436935 
	C439.666504,233.162430 437.346069,246.892960 435.134613,260.640656 
	C433.331360,271.850983 431.896851,283.123199 429.947815,294.306824 
	C427.845490,306.369843 426.320129,318.666107 422.726440,330.299438 
	C419.100494,342.037323 410.720184,350.799347 399.866943,357.070190 
	C390.481476,362.492981 380.353943,364.968628 369.730377,364.931335 
	C317.986450,364.749786 266.243378,364.333344 214.000000,364.000000 
M281.000000,235.499985 
	C275.176727,241.326569 269.353485,247.153137 263.445496,253.064514 
	C257.582672,247.165604 251.996765,241.455170 246.310608,235.846405 
	C238.832809,228.470398 229.580017,230.297714 224.030258,236.340714 
	C219.013779,241.803070 218.536896,251.578613 225.011963,257.649841 
	C234.354980,266.410126 243.478607,275.443542 252.171082,284.845581 
	C258.603119,291.802673 268.858215,291.640076 275.475861,285.012482 
	C293.937103,266.523499 312.536530,248.169846 330.774323,229.463394 
	C333.386444,226.784149 335.238190,222.587952 335.791626,218.849487 
	C336.747253,212.394577 332.473572,206.822525 326.553101,203.865082 
	C320.056519,200.619873 313.101929,203.460037 309.405762,207.127838 
	C300.073792,216.388275 290.798187,225.705521 281.000000,235.499985 
z"/>
<path fill="#FFFFFF" opacity="1.000000" stroke="none" 
	d="
M182.289124,424.008667 
	C197.769409,417.434967 215.419250,426.408417 219.365540,440.764862 
	C222.524750,452.257935 219.444519,462.771698 212.408997,468.711792 
	C200.776031,478.533600 190.339767,478.162933 179.990005,472.825958 
	C170.690079,468.030396 166.004532,459.276703 166.133392,448.853668 
	C166.271927,437.648956 171.801117,429.235199 182.289124,424.008667 
z"/>
<path fill="#FFFFFF" opacity="1.000000" stroke="none" 
	d="
M353.912903,423.577515 
	C361.933777,421.436371 369.620117,420.874512 376.860779,425.001160 
	C388.222626,431.476562 392.572571,440.473175 390.838348,454.203796 
	C389.711670,463.124146 381.896851,472.551270 371.086884,475.170502 
	C356.361145,478.738525 343.260559,470.553558 339.025818,459.789917 
	C332.818115,444.011505 340.840179,428.842316 353.912903,423.577515 
z"/>
<path fill="#000000" opacity="1.000000" stroke="none" 
	d="
M281.250000,235.250000 
	C290.798187,225.705521 300.073792,216.388275 309.405762,207.127838 
	C313.101929,203.460037 320.056519,200.619873 326.553101,203.865082 
	C332.473572,206.822525 336.747253,212.394577 335.791626,218.849487 
	C335.238190,222.587952 333.386444,226.784149 330.774323,229.463394 
	C312.536530,248.169846 293.937103,266.523499 275.475861,285.012482 
	C268.858215,291.640076 258.603119,291.802673 252.171082,284.845581 
	C243.478607,275.443542 234.354980,266.410126 225.011963,257.649841 
	C218.536896,251.578613 219.013779,241.803070 224.030258,236.340714 
	C229.580017,230.297714 238.832809,228.470398 246.310608,235.846405 
	C251.996765,241.455170 257.582672,247.165604 263.445496,253.064514 
	C269.353485,247.153137 275.176727,241.326569 281.250000,235.250000 
z"/>
</svg>